<svg width="24" height="24" viewBox="0 0 24 24" fill="none" xmlns="http://www.w3.org/2000/svg">
<rect width="24" height="24" rx="7" fill="#CE0058"/>
<path d="M8.44444 4C5.99022 4 4 5.99022 4 8.44444V15.5556C4 18.0098 5.99022 20 8.44444 20H15.5556C18.0098 20 20 18.0098 20 15.5556V8.44444C20 5.99022 18.0098 4 15.5556 4H8.44444ZM17.3333 5.77778C17.824 5.77778 18.2222 6.176 18.2222 6.66667C18.2222 7.15733 17.824 7.55556 17.3333 7.55556C16.8427 7.55556 16.4444 7.15733 16.4444 6.66667C16.4444 6.176 16.8427 5.77778 17.3333 5.77778ZM12 7.55556C14.4542 7.55556 16.4444 9.54578 16.4444 12C16.4444 14.4542 14.4542 16.4444 12 16.4444C9.54578 16.4444 7.55556 14.4542 7.55556 12C7.55556 9.54578 9.54578 7.55556 12 7.55556ZM12 9.33333C11.2928 9.33333 10.6145 9.61428 10.1144 10.1144C9.61428 10.6145 9.33333 11.2928 9.33333 12C9.33333 12.7072 9.61428 13.3855 10.1144 13.8856C10.6145 14.3857 11.2928 14.6667 12 14.6667C12.7072 14.6667 13.3855 14.3857 13.8856 13.8856C14.3857 13.3855 14.6667 12.7072 14.6667 12C14.6667 11.2928 14.3857 10.6145 13.8856 10.1144C13.3855 9.61428 12.7072 9.33333 12 9.33333Z" fill="white"/>
</svg>
