<svg width="24" height="24" viewBox="0 0 24 24" fill="none" xmlns="http://www.w3.org/2000/svg">
<rect width="24" height="24" rx="7" fill="#CE0058"/>
<path d="M16.908 7.20765C16.0431 6.64632 15.4195 5.74598 15.2239 4.69803C15.1818 4.47204 15.158 4.23875 15.158 4H12.3986L12.395 15.0245C12.3493 16.2583 11.3289 17.2498 10.0799 17.2498C9.69227 17.2498 9.32654 17.1532 9.00287 16.9837C8.26411 16.5955 7.7594 15.8246 7.7594 14.937C7.7594 13.6612 8.7999 12.6242 10.0799 12.6242C10.3195 12.6242 10.5481 12.6643 10.7638 12.7317V9.92323C10.5389 9.89224 10.3122 9.87402 10.0799 9.87402C7.27847 9.87402 5 12.1449 5 14.937C5 16.6502 5.85946 18.1665 7.16876 19.0833C7.99347 19.661 8.99739 20 10.0799 20C12.8814 20 15.1599 17.7291 15.1599 14.937V9.34731C16.2424 10.1219 17.5682 10.5775 19 10.5775V8.43969C18.1735 8.2629 17.4457 7.82003 16.908 7.20765Z" fill="white"/>
</svg>
