<svg width="24" height="24" viewBox="0 0 24 24" fill="none" xmlns="http://www.w3.org/2000/svg">
<rect width="24" height="24" rx="7" fill="#CE0058"/>
<path d="M19.6656 7.77612C19.4816 7.07737 18.9392 6.5265 18.2512 6.33963C17.0032 6 12 6 12 6C12 6 6.9968 6 5.7488 6.33963C5.0608 6.5265 4.5184 7.07737 4.3344 7.77612C4 9.04362 4 12.5 4 12.5C4 12.5 4 15.9564 4.3344 17.2239C4.5184 17.9226 5.0608 18.4735 5.7488 18.6604C6.9968 19 12 19 12 19C12 19 17.0032 19 18.2512 18.6604C18.94 18.4735 19.4816 17.9226 19.6656 17.2239C20 15.9564 20 12.5 20 12.5C20 12.5 20 9.04362 19.6656 7.77612ZM10.4 15.3145V9.6855L15.2 12.5L10.4 15.3145Z" fill="white"/>
</svg>
