<svg width="100" height="41" viewBox="0 0 100 41" fill="none" xmlns="http://www.w3.org/2000/svg">
<path d="M63.7613 4.28158C63.3513 4.36287 60.6992 3.86208 60.6992 3.86208C60.6992 3.86208 62.6755 4.89944 62.7203 5.17259C62.7715 5.46201 61.9388 7.179 61.9388 7.179C61.9388 7.179 63.3449 5.72216 63.7741 5.35795C64.0784 5.0978 64.6773 5.10105 65.1289 5.17585C65.5453 5.24088 68.1013 5.66688 71.0096 4.13849C72.909 3.14342 72.9186 2.94505 72.9186 2.94505C72.9186 2.94505 71.4644 1.9825 68.9533 2.35646C66.1571 2.7727 64.168 4.19378 63.7581 4.27833" fill="#CE0058"/>
<path d="M25.1817 36.7061C24.6949 36.8394 22.046 36.2215 22.046 36.2215C22.046 36.2215 24.0094 37.4475 24.1824 37.6816C24.3522 37.9158 23.8205 40.0945 23.8205 40.0945C23.8205 40.0945 25.0504 38.384 25.5244 37.8605C25.8159 37.5483 26.5462 37.6231 26.9017 37.6784C27.2541 37.7337 30.7549 38.397 34.0027 36.0427C36.1263 34.5013 36.0943 34.2086 36.0943 34.2086C36.0943 34.2086 34.102 32.8201 31.0848 33.4347C28.0644 34.046 25.6686 36.5695 25.1849 36.7061" fill="#CE0058"/>
<path d="M84.2961 3.65391C83.5915 3.76122 79.9785 2.44746 79.9785 2.44746C79.9785 2.44746 82.5345 4.48965 82.7363 4.85061C82.9381 5.20831 81.8362 8.17728 81.8362 8.17728C81.8362 8.17728 83.8413 5.98551 84.5908 5.33188C85.0488 4.93841 86.0642 5.16929 86.5478 5.30587C87.0347 5.44895 91.8359 6.97083 96.7749 4.20998C99.9971 2.41169 100 1.98895 100 1.98895C100 1.98895 97.4315 -0.287369 93.1011 0.0638342C88.7707 0.415038 85.0008 3.5466 84.2961 3.65391Z" fill="#FFA300"/>
<path d="M3.54249 31.3339C2.84424 31.5355 0 30.3779 0 30.3779C0 30.3779 2.76737 32.0331 2.86666 32.3225C2.96916 32.6119 1.14026 35.3142 1.14026 35.3142C1.14026 35.3142 2.96916 33.7111 3.71865 33.0899C4.38487 32.5404 5.98956 32.3388 6.92483 32.4168C7.82486 32.4981 11.6012 33.0282 16.3576 29.812C19.4645 27.7113 19.4356 27.3309 19.4356 27.3309C19.4356 27.3309 16.6907 25.6626 12.3667 26.6187C8.04266 27.5813 4.24074 31.1291 3.54249 31.3307" fill="#FFA300"/>
<path d="M39.3385 28.9275C38.8869 28.9731 37.2822 27.939 37.2822 27.939C37.2822 27.939 38.7876 29.2657 38.8165 29.4543C38.8485 29.6429 37.4328 31.0803 37.4328 31.0803C37.4328 31.0803 38.7236 30.3128 39.2521 30.0169C39.7197 29.7568 40.719 29.8185 41.2827 29.9714C41.8208 30.1242 44.0693 30.8787 47.33 29.4543C49.4567 28.5243 49.4823 28.2902 49.4823 28.2902C49.4823 28.2902 47.993 26.9601 45.248 27.0544C42.5031 27.152 39.7902 28.882 39.3385 28.9243" fill="#FFA300"/>
<path d="M15.602 20.0987C14.9134 20.4303 14.0966 20.5962 13.3119 20.5962C10.2851 20.5962 7.6875 18.9702 7.6875 14.7981C7.6875 10.6259 10.3716 8.88941 13.3952 8.88941C14.1127 8.88941 14.9454 8.99022 15.6052 9.18859V11.1332C14.9326 10.8503 14.1959 10.6845 13.376 10.6845C11.2524 10.6845 9.731 11.7803 9.731 14.7526C9.731 17.7248 11.3837 18.7881 13.3952 18.7881C14.244 18.7881 14.9166 18.6548 15.6052 18.3556V20.0987H15.602Z" fill="white"/>
<path d="M23.4365 16.4468C23.4365 18.889 22.0464 20.58 19.9036 20.58C17.7608 20.58 16.3867 18.889 16.3867 16.4468C16.3867 14.0047 17.7928 12.3462 19.9036 12.3462C22.0143 12.3462 23.4365 13.9754 23.4365 16.4468ZM18.3341 16.4468C18.3341 18.1248 19.0548 18.9541 19.9548 18.9541C20.8549 18.9541 21.5083 18.1899 21.5083 16.4468C21.5083 14.7038 20.7876 13.9559 19.8716 13.9559C18.9555 13.9559 18.3341 14.7038 18.3341 16.4468Z" fill="white"/>
<path d="M34.6657 20.3491H32.8657V15.3835C32.8657 14.3526 32.4749 13.9754 31.6549 13.9754C31.1809 13.9754 30.4794 14.1705 30.4794 14.5542C30.4955 14.7396 30.5275 14.9672 30.5275 15.2209V20.3491H28.7274V15.3835C28.7274 14.3364 28.3174 13.9754 27.616 13.9754C27.0106 13.9754 26.4053 14.1413 26.4053 14.7038V20.3491H24.6084V12.7462C26.1939 12.7462 26.6999 12.382 27.8786 12.382C28.9452 12.382 29.368 12.6324 29.7588 12.9803C30.3481 12.5966 31.1008 12.382 32.0649 12.382C33.6184 12.382 34.6625 13.0974 34.6625 15.1396V20.3524L34.6657 20.3491Z" fill="white"/>
<path d="M35.9854 23.9847C36.0174 22.2449 36.0526 21.0157 36.0526 18.8402V12.6128C37.164 12.6128 37.8687 12.3494 38.9641 12.3494C40.9436 12.3494 42.5963 13.79 42.5963 16.5021C42.5963 19.2142 40.8282 20.5344 39.1947 20.5344C38.4901 20.5344 38.0833 20.3686 37.8367 20.1832V23.9879H35.9854V23.9847ZM38.8136 13.9071C38.2082 13.9071 37.8335 14.1737 37.8335 14.4371V18.424C37.8335 18.7069 38.2595 18.954 38.8136 18.954C39.9602 18.954 40.6136 18.1898 40.6136 16.4631C40.6136 14.7363 39.957 13.9038 38.8136 13.9038" fill="white"/>
<path d="M47.4806 15.2209V14.9217C47.4806 14.2941 47.0514 13.9071 46.2859 13.9071C45.5204 13.9071 44.7133 14.06 43.8965 14.4372V12.7299C44.7453 12.4763 45.5172 12.3462 46.4301 12.3462C48.1981 12.3462 49.2935 13.0746 49.2935 14.9022C49.2935 16.1834 49.2455 17.2923 49.2455 18.5248C49.2455 19.1719 49.2807 19.8841 49.3287 20.3036C48.0187 20.3036 47.3173 20.515 46.2026 20.515C44.3065 20.515 43.3584 19.6207 43.3584 18.1118C43.3584 16.6029 44.6012 15.3087 47.4806 15.2241M47.4806 16.5834C45.988 16.6322 45.2225 17.0972 45.2225 17.9785C45.2225 18.5736 45.6806 18.9931 46.382 18.9931C47.0354 18.9931 47.3461 18.811 47.4134 18.5736C47.4614 18.3264 47.4806 17.5785 47.4806 16.5834Z" fill="white"/>
<path d="M50.6875 20.3491V12.5771H52.3883V13.3087C52.8463 12.5771 53.615 12.3267 54.3677 12.3267C54.6944 12.3267 54.9571 12.3624 55.2037 12.3949V14.3201C54.893 14.1705 54.4029 14.1054 53.9417 14.1054C53.205 14.1054 52.5548 14.4046 52.5196 15.055C52.4876 16.3688 52.4876 18.3784 52.4876 20.3523H50.6875V20.3491Z" fill="white"/>
<path d="M57.7467 12.5771H59.9536V14.1706H57.7467C57.7467 15.816 57.7307 16.9444 57.7307 18.1574C57.7307 18.7362 58.0735 18.9703 58.6756 18.9703C59.1689 18.9703 59.5596 18.889 59.9536 18.6712V20.2808C59.4123 20.4825 58.8582 20.58 58.2048 20.58C56.8948 20.58 55.9307 19.9654 55.9307 18.5216V11.1658L57.7467 10.0699V12.5739V12.5771Z" fill="white"/>
<path d="M65.0102 15.2208V14.9184C65.0102 14.2908 64.5842 13.9038 63.8155 13.9038C63.0468 13.9038 62.246 14.0567 61.4261 14.4339V12.7266C62.2749 12.473 63.0468 12.3429 63.9628 12.3429C65.7277 12.3429 66.8231 13.0713 66.8231 14.8989C66.8231 16.1801 66.775 17.289 66.775 18.5215C66.775 19.1686 66.8071 19.8808 66.8583 20.3003C65.5483 20.3003 64.8436 20.5117 63.7322 20.5117C61.836 20.5117 60.8848 19.6174 60.8848 18.1085C60.8848 16.5996 62.1307 15.3054 65.007 15.2208M65.007 16.5801C63.5176 16.6289 62.7489 17.0939 62.7489 17.9752C62.7489 18.5703 63.2069 18.9898 63.9116 18.9898C64.565 18.9898 64.8725 18.8077 64.9397 18.5703C64.9878 18.3231 65.007 17.5752 65.007 16.5801Z" fill="white"/>
<path d="M78.2969 20.3491H76.5V15.3835C76.5 14.3526 76.1092 13.9754 75.2893 13.9754C74.8152 13.9754 74.1106 14.1705 74.1106 14.5543C74.1266 14.7396 74.1586 14.9672 74.1586 15.2209V20.3491H72.3586V15.3835C72.3586 14.3364 71.9518 13.9754 71.2471 13.9754C70.6418 13.9754 70.0364 14.1413 70.0364 14.7038V20.3491H68.2363V12.743C69.8218 12.743 70.3311 12.3787 71.5098 12.3787C72.57 12.3787 72.9959 12.6291 73.3899 12.9771C73.9761 12.5934 74.732 12.3787 75.6961 12.3787C77.2463 12.3787 78.2937 13.0942 78.2937 15.1331V20.3491H78.2969Z" fill="white"/>
<path d="M86.4704 16.4468C86.4704 18.889 85.0803 20.58 82.9375 20.58C80.7947 20.58 79.4238 18.889 79.4238 16.4468C79.4238 14.0047 80.8299 12.3462 82.9375 12.3462C85.045 12.3462 86.4704 13.9754 86.4704 16.4468ZM81.3648 16.4468C81.3648 18.1248 82.0855 18.9541 82.9855 18.9541C83.8856 18.9541 84.5422 18.1931 84.5422 16.4468C84.5422 14.7006 83.8215 13.9559 82.9055 13.9559C81.9894 13.9559 81.3648 14.7038 81.3648 16.4468Z" fill="white"/>
<path d="M90.2149 12.3462C90.8202 12.3462 91.3295 12.395 91.9829 12.5771V14.3071C91.2142 13.9916 90.6729 13.9071 90.1508 13.9071C89.5294 13.9071 89.1387 14.1738 89.1387 14.5737C89.1387 15.7672 92.3448 15.6534 92.3448 18.0435C92.3448 19.3377 91.4288 20.5865 89.302 20.5865C88.6326 20.5865 87.9439 20.5182 87.3066 20.3231V18.6971C87.9279 18.9117 88.6646 19.0126 89.1899 19.0126C90.0547 19.0126 90.4967 18.6809 90.4967 18.1671C90.4967 16.8533 87.2745 17.0517 87.2745 14.7786C87.2745 13.286 88.3892 12.356 90.2181 12.356" fill="white"/>
<path d="M70.3338 31.8152C70.3338 33.3826 68.9982 34.3582 67.1565 34.3582C66.1956 34.3582 65.744 34.2671 64.7959 34.2671V25.3895C65.7696 25.3895 66.17 25.2562 67.0027 25.2562C68.8829 25.2562 69.8182 26.1764 69.8182 27.5097C69.8182 28.365 69.2865 29.1552 68.2487 29.4186C69.5075 29.669 70.337 30.7096 70.337 31.8152H70.3338ZM65.9618 29.0218H66.4038C67.9989 29.0218 68.5562 28.3487 68.5562 27.6105C68.5562 26.8203 67.9989 26.2805 66.9355 26.2805C66.1956 26.2805 66.0258 26.3716 66.013 26.5829C65.9746 27.3861 65.9618 28.4267 65.9618 29.0218ZM67.1565 33.3436C68.2839 33.3436 69.0494 32.7518 69.0494 31.7762C69.0494 30.8006 68.2711 30.0624 66.6632 30.0234C66.4166 30.0234 66.17 30.0234 65.9618 30.0494V33.0119C65.9618 33.2363 66.3141 33.3403 67.1565 33.3403V33.3436Z" fill="white"/>
<path d="M74.3858 30.2869V29.9714C74.3858 29.3145 73.9822 28.9568 73.2327 28.9568C72.6369 28.9568 72.0508 29.0902 71.4679 29.3666V28.326C72.0668 28.1016 72.6498 27.9845 73.3352 27.9845C74.6708 27.9845 75.4908 28.5373 75.4908 29.9324C75.4908 30.986 75.4524 31.9356 75.4524 32.9209C75.4524 33.4477 75.478 33.8834 75.5036 34.2249C74.5555 34.2249 73.9598 34.3972 73.1815 34.3972C71.7689 34.3972 71.0419 33.6591 71.0419 32.5404C71.0419 31.3275 72.0284 30.3421 74.389 30.2901L74.3858 30.2869ZM74.3858 31.1551C72.8804 31.1811 72.2334 31.6039 72.2334 32.4591C72.2334 33.0119 72.6241 33.4477 73.3128 33.4477C74.0014 33.4477 74.2705 33.2753 74.3249 32.9989C74.3762 32.7485 74.389 32.0494 74.389 31.1551H74.3858Z" fill="white"/>
<path d="M77.672 29.643V34.2671H76.5702V28.3129C77.829 28.3129 77.9987 27.9975 79.1902 27.9975C80.3049 27.9975 81.2914 28.5503 81.2914 30.1047V34.2671H80.1863V30.3031C80.1863 29.3535 79.7475 29.0121 78.902 29.0121C78.1493 29.0121 77.6688 29.3145 77.6688 29.643H77.672Z" fill="white"/>
<path d="M85.189 33.4509C85.5669 33.4509 85.852 33.4119 86.1627 33.3599V34.3354C85.8008 34.4135 85.4741 34.4557 85.1634 34.4557C83.3345 34.4557 82.127 33.3761 82.127 31.2169C82.127 29.2527 83.2032 27.991 85.1634 27.991C85.4997 27.991 85.8392 28.03 86.1627 28.082V29.1487C85.8264 29.0446 85.5253 29.0056 85.1506 29.0056C84.0487 29.0056 83.3601 29.6397 83.3601 31.2299C83.3601 32.82 84.0487 33.4574 85.189 33.4574V33.4509Z" fill="white"/>
<path d="M92.1623 31.2104C92.1623 33.1192 91.1117 34.4493 89.4782 34.4493C87.8447 34.4493 86.7909 33.1192 86.7909 31.2104C86.7909 29.3015 87.8415 27.9845 89.4782 27.9845C91.1149 27.9845 92.1623 29.2885 92.1623 31.2104ZM87.9984 31.2104C87.9984 32.6965 88.6614 33.4477 89.5166 33.4477C90.3718 33.4477 90.958 32.7485 90.958 31.2104C90.958 29.747 90.2949 28.9828 89.4526 28.9828C88.6102 28.9828 87.9984 29.669 87.9984 31.2104Z" fill="white"/>
<path d="M95.5222 34.2802C94.6445 34.2802 94.0264 33.5973 94.0264 32.755C94.0264 31.9128 94.6445 31.2169 95.5222 31.2169C96.3998 31.2169 97.0275 31.8933 97.0275 32.755C97.0275 33.6168 96.3998 34.2802 95.5222 34.2802ZM95.5126 31.477C94.7791 31.477 94.3082 32.0461 94.3082 32.7485C94.3082 33.4509 94.7823 34.0233 95.5126 34.0233C96.2428 34.0233 96.7137 33.4542 96.7137 32.7485C96.7137 32.0429 96.2428 31.477 95.5126 31.477ZM95.1314 33.7338H94.8527V31.7177C95.0673 31.7177 95.2115 31.6884 95.4261 31.6884C95.8104 31.6884 96.1115 31.8835 96.1115 32.251C96.1115 32.4884 95.9866 32.6607 95.756 32.768C95.7368 32.781 95.7304 32.7973 95.7304 32.8168C95.7304 32.8331 95.7368 32.8591 95.7496 32.8753L96.2845 33.7306H95.9802L95.5414 33.0542C95.4517 32.9241 95.41 32.8916 95.314 32.8916H95.1346V33.7306L95.1314 33.7338ZM95.3236 32.6412C95.6503 32.6412 95.804 32.5111 95.804 32.2575C95.804 32.0526 95.6343 31.9421 95.3876 31.9421C95.2339 31.9421 95.1506 31.9811 95.1442 32.0234C95.1346 32.251 95.1346 32.4656 95.1346 32.6412H95.3268H95.3236Z" fill="white"/>
</svg>
