<svg width="55" height="51" viewBox="0 0 55 51" fill="none" xmlns="http://www.w3.org/2000/svg">
<path d="M50.4955 20.504L20.2603 3.04771C18.0915 1.79557 15.3271 2.52342 14.0858 4.6734L2.83773 24.1557C1.59644 26.3057 2.3483 29.0636 4.51706 30.3158L34.7523 47.7721C36.9211 49.0242 39.6855 48.2964 40.9268 46.1464L52.1749 26.6641C53.4162 24.5141 52.6643 21.7562 50.4955 20.504Z" fill="#910048"/>
<path d="M50.4955 20.504L20.2603 3.04771C18.0897 1.79451 15.3282 2.5216 14.0858 4.6734L2.83773 24.1557C1.60054 26.2986 2.34646 29.0626 4.51706 30.3158L50.4955 20.504Z" fill="#CE0058"/>
<path d="M13.3313 27.0715L8.82794 24.4715C8.33258 24.1855 8.15925 23.5497 8.44277 23.0586C8.72629 22.5676 9.36357 22.3998 9.85893 22.6858L14.3622 25.2858C14.8576 25.5718 15.0309 26.2075 14.7474 26.6986C14.4639 27.1897 13.8266 27.3575 13.3313 27.0715Z" fill="#FEE0EC"/>
<path d="M21.4372 31.7517L16.9339 29.1517C16.4385 28.8657 16.2652 28.2299 16.5487 27.7388C16.8323 27.2477 17.4695 27.0799 17.9649 27.3659L22.4682 29.9659C22.9636 30.2519 23.1369 30.8877 22.8534 31.3788C22.5698 31.8699 21.9326 32.0377 21.4372 31.7517Z" fill="#FEE0EC"/>
<path d="M29.5432 36.4313L25.0399 33.8314C24.5445 33.5454 24.3712 32.9096 24.6547 32.4185C24.9382 31.9274 25.5755 31.7596 26.0708 32.0456L30.5742 34.6456C31.0695 34.9316 31.2428 35.5674 30.9593 36.0585C30.6758 36.5496 30.0385 36.7173 29.5432 36.4313Z" fill="#FEE0EC"/>
<path d="M37.6491 41.1118L33.1458 38.5118C32.6505 38.2258 32.4771 37.59 32.7607 37.0989C33.0442 36.6078 33.6815 36.4401 34.1768 36.7261L38.6801 39.326C39.1755 39.612 39.3488 40.2478 39.0653 40.7389C38.7818 41.23 38.1445 41.3978 37.6491 41.1118Z" fill="#FEE0EC"/>
<path d="M24.8124 14.8186C25.8537 13.015 25.2144 10.6696 23.395 9.61923L21.1884 8.34523C19.369 7.29484 17.0182 7.91379 15.9769 9.71738L15.6625 10.262L24.498 15.3632L24.8124 14.8186Z" fill="#FFA300"/>
<path d="M24.1781 15.9171C23.1368 17.7207 20.786 18.3396 18.9666 17.2892L16.76 16.0152C14.9407 14.9648 14.3013 12.6195 15.3426 10.8159L15.657 10.2712L24.4925 15.3724L24.1781 15.9171Z" fill="#FFA300"/>
</svg>
