<svg width="213" height="26" viewBox="0 0 213 26" fill="none" xmlns="http://www.w3.org/2000/svg">
<path d="M7.91477 11.3182H9.14773V18.0597C9.14773 18.7557 8.98367 19.3771 8.65554 19.924C8.33073 20.4676 7.87169 20.8968 7.27841 21.2116C6.68513 21.5232 5.98911 21.679 5.19034 21.679C4.39157 21.679 3.69555 21.5232 3.10227 21.2116C2.509 20.8968 2.0483 20.4676 1.72017 19.924C1.39536 19.3771 1.23295 18.7557 1.23295 18.0597V11.3182H2.46591V17.9602C2.46591 18.4574 2.57528 18.8999 2.79403 19.2876C3.01278 19.6721 3.32434 19.9754 3.72869 20.1974C4.13636 20.4162 4.62358 20.5256 5.19034 20.5256C5.7571 20.5256 6.24432 20.4162 6.65199 20.1974C7.05966 19.9754 7.37121 19.6721 7.58665 19.2876C7.8054 18.8999 7.91477 18.4574 7.91477 17.9602V11.3182ZM12.6241 16.9062V21.5H11.4508V13.8636H12.5843V15.0568H12.6838C12.8627 14.669 13.1345 14.3575 13.4991 14.1222C13.8637 13.8835 14.3343 13.7642 14.911 13.7642C15.4281 13.7642 15.8805 13.8703 16.2683 14.0824C16.6561 14.2912 16.9577 14.6094 17.1731 15.0369C17.3886 15.4612 17.4963 15.9981 17.4963 16.6477V21.5H16.323V16.7273C16.323 16.1274 16.1672 15.66 15.8556 15.3253C15.5441 14.9872 15.1165 14.8182 14.573 14.8182C14.1984 14.8182 13.8637 14.8994 13.5687 15.0618C13.277 15.2242 13.0467 15.4612 12.8777 15.7727C12.7086 16.0843 12.6241 16.4621 12.6241 16.9062ZM21.8874 21.679C21.4035 21.679 20.9644 21.5878 20.57 21.4055C20.1755 21.2199 19.8623 20.9531 19.6303 20.6051C19.3983 20.2538 19.2823 19.8295 19.2823 19.3324C19.2823 18.8949 19.3685 18.5402 19.5408 18.2685C19.7132 17.9934 19.9435 17.7779 20.2319 17.6222C20.5202 17.4664 20.8384 17.3504 21.1864 17.2741C21.5378 17.1946 21.8907 17.1316 22.2454 17.0852C22.7094 17.0256 23.0856 16.9808 23.3739 16.951C23.6656 16.9179 23.8777 16.8632 24.0103 16.7869C24.1462 16.7107 24.2141 16.5781 24.2141 16.3892V16.3494C24.2141 15.8589 24.0799 15.4777 23.8114 15.206C23.5463 14.9342 23.1436 14.7983 22.6033 14.7983C22.0432 14.7983 21.604 14.9209 21.2859 15.1662C20.9677 15.4115 20.744 15.6733 20.6147 15.9517L19.5011 15.554C19.6999 15.09 19.9651 14.7287 20.2965 14.4702C20.6313 14.2083 20.9959 14.026 21.3903 13.9233C21.788 13.8172 22.1791 13.7642 22.5636 13.7642C22.8088 13.7642 23.0906 13.794 23.4087 13.8537C23.7302 13.91 24.0401 14.0277 24.3384 14.2067C24.64 14.3857 24.8903 14.6558 25.0891 15.017C25.288 15.3783 25.3874 15.8622 25.3874 16.4688V21.5H24.2141V20.4659H24.1545C24.0749 20.6316 23.9424 20.8089 23.7567 20.9979C23.5711 21.1868 23.3242 21.3475 23.016 21.4801C22.7077 21.6127 22.3316 21.679 21.8874 21.679ZM22.0664 20.625C22.5304 20.625 22.9215 20.5339 23.2397 20.3516C23.5612 20.1693 23.8031 19.9339 23.9656 19.6456C24.1313 19.3572 24.2141 19.054 24.2141 18.7358V17.6619C24.1644 17.7216 24.055 17.7763 23.886 17.826C23.7203 17.8724 23.5281 17.9138 23.3093 17.9503C23.0939 17.9834 22.8834 18.0133 22.6779 18.0398C22.4757 18.063 22.3117 18.0829 22.1857 18.0994C21.8808 18.1392 21.5958 18.2038 21.3306 18.2933C21.0688 18.3795 20.8567 18.5104 20.6942 18.6861C20.5352 18.8584 20.4556 19.0937 20.4556 19.392C20.4556 19.7997 20.6064 20.108 20.908 20.3168C21.2129 20.5223 21.5991 20.625 22.0664 20.625ZM34.6681 21.6591C33.9324 21.6591 33.2976 21.4967 32.764 21.1719C32.2337 20.8438 31.8244 20.3864 31.536 19.7997C31.251 19.2098 31.1085 18.5237 31.1085 17.7415C31.1085 16.9593 31.251 16.2699 31.536 15.6733C31.8244 15.0734 32.2254 14.6061 32.7392 14.2713C33.2562 13.9332 33.8594 13.7642 34.5488 13.7642C34.9466 13.7642 35.3393 13.8305 35.7271 13.9631C36.1149 14.0956 36.4679 14.3111 36.786 14.6094C37.1042 14.9044 37.3578 15.2955 37.5467 15.7827C37.7356 16.2699 37.8301 16.8698 37.8301 17.5824V18.0795H31.9437V17.0653H36.6369C36.6369 16.6345 36.5507 16.25 36.3784 15.9119C36.2093 15.5739 35.9674 15.3071 35.6525 15.1115C35.341 14.916 34.9731 14.8182 34.5488 14.8182C34.0815 14.8182 33.6771 14.9342 33.3358 15.1662C32.9977 15.3949 32.7375 15.6932 32.5552 16.0611C32.3729 16.429 32.2818 16.8234 32.2818 17.2443V17.9205C32.2818 18.4972 32.3812 18.986 32.5801 19.3871C32.7823 19.7848 33.0623 20.0881 33.4203 20.2969C33.7782 20.5024 34.1942 20.6051 34.6681 20.6051C34.9764 20.6051 35.2548 20.562 35.5034 20.4759C35.7553 20.3864 35.9724 20.2538 36.1547 20.0781C36.3369 19.8991 36.4778 19.6771 36.5772 19.4119L37.7108 19.7301C37.5914 20.1146 37.3909 20.4527 37.1092 20.7443C36.8275 21.0327 36.4795 21.258 36.0652 21.4205C35.6509 21.5795 35.1852 21.6591 34.6681 21.6591ZM39.6149 21.5V13.8636H40.7484V15.0568H40.8478C41.0069 14.6491 41.2638 14.3326 41.6184 14.1072C41.9731 13.8786 42.399 13.7642 42.8961 13.7642C43.3999 13.7642 43.8192 13.8786 44.1539 14.1072C44.492 14.3326 44.7555 14.6491 44.9444 15.0568H45.024C45.2195 14.6624 45.5128 14.3492 45.9039 14.1172C46.295 13.8819 46.764 13.7642 47.3109 13.7642C47.9937 13.7642 48.5521 13.978 48.9863 14.4055C49.4205 14.8298 49.6376 15.491 49.6376 16.3892V21.5H48.4643V16.3892C48.4643 15.8258 48.3102 15.4231 48.002 15.1811C47.6937 14.9392 47.3308 14.8182 46.9132 14.8182C46.3762 14.8182 45.9603 14.9806 45.6653 15.3054C45.3703 15.6269 45.2228 16.0346 45.2228 16.5284V21.5H44.0297V16.2699C44.0297 15.8357 43.8888 15.486 43.6071 15.2209C43.3253 14.9524 42.9624 14.8182 42.5183 14.8182C42.2134 14.8182 41.9283 14.8994 41.6632 15.0618C41.4013 15.2242 41.1892 15.4496 41.0268 15.7379C40.8677 16.023 40.7882 16.3527 40.7882 16.7273V21.5H39.6149ZM51.7828 24.3636V13.8636H52.9164V15.0767H53.0556C53.1417 14.9441 53.2611 14.7751 53.4135 14.5696C53.5693 14.3608 53.7914 14.1752 54.0797 14.0128C54.3714 13.8471 54.7658 13.7642 55.263 13.7642C55.906 13.7642 56.4727 13.925 56.9632 14.2464C57.4538 14.5679 57.8366 15.0237 58.1117 15.6136C58.3868 16.2036 58.5243 16.8996 58.5243 17.7017C58.5243 18.5104 58.3868 19.2114 58.1117 19.8047C57.8366 20.3946 57.4554 20.852 56.9682 21.1768C56.481 21.4983 55.9192 21.6591 55.2828 21.6591C54.7923 21.6591 54.3996 21.5779 54.1046 21.4155C53.8096 21.2498 53.5826 21.0625 53.4235 20.8537C53.2644 20.6416 53.1417 20.4659 53.0556 20.3267H52.9561V24.3636H51.7828ZM52.9363 17.6818C52.9363 18.2585 53.0208 18.7673 53.1898 19.2081C53.3588 19.6456 53.6058 19.9886 53.9306 20.2372C54.2554 20.4825 54.6531 20.6051 55.1238 20.6051C55.6143 20.6051 56.0236 20.4759 56.3517 20.2173C56.6832 19.9555 56.9318 19.6042 57.0975 19.1634C57.2665 18.7192 57.351 18.2254 57.351 17.6818C57.351 17.1449 57.2682 16.661 57.1025 16.2301C56.94 15.7959 56.6931 15.4529 56.3617 15.201C56.0336 14.9458 55.6209 14.8182 55.1238 14.8182C54.6465 14.8182 54.2454 14.9392 53.9206 15.1811C53.5958 15.4197 53.3506 15.7545 53.1848 16.1854C53.0191 16.6129 52.9363 17.1117 52.9363 17.6818ZM60.3141 21.5V13.8636H61.4476V15.017H61.5272C61.6664 14.6392 61.9183 14.3326 62.2828 14.0973C62.6474 13.862 63.0584 13.7443 63.5158 13.7443C63.602 13.7443 63.7097 13.746 63.839 13.7493C63.9682 13.7526 64.066 13.7576 64.1323 13.7642V14.9574C64.0925 14.9474 64.0014 14.9325 63.8588 14.9126C63.7196 14.8894 63.5721 14.8778 63.4164 14.8778C63.0452 14.8778 62.7137 14.9557 62.4221 15.1115C62.1337 15.264 61.905 15.4761 61.736 15.7479C61.5703 16.0163 61.4874 16.3229 61.4874 16.6676V21.5H60.3141ZM68.4924 21.6591C67.7566 21.6591 67.1219 21.4967 66.5882 21.1719C66.0579 20.8438 65.6486 20.3864 65.3603 19.7997C65.0752 19.2098 64.9327 18.5237 64.9327 17.7415C64.9327 16.9593 65.0752 16.2699 65.3603 15.6733C65.6486 15.0734 66.0497 14.6061 66.5634 14.2713C67.0804 13.9332 67.6837 13.7642 68.373 13.7642C68.7708 13.7642 69.1635 13.8305 69.5513 13.9631C69.9391 14.0956 70.2921 14.3111 70.6103 14.6094C70.9284 14.9044 71.182 15.2955 71.3709 15.7827C71.5598 16.2699 71.6543 16.8698 71.6543 17.5824V18.0795H65.7679V17.0653H70.4611C70.4611 16.6345 70.3749 16.25 70.2026 15.9119C70.0336 15.5739 69.7916 15.3071 69.4767 15.1115C69.1652 14.916 68.7973 14.8182 68.373 14.8182C67.9057 14.8182 67.5014 14.9342 67.16 15.1662C66.8219 15.3949 66.5617 15.6932 66.3794 16.0611C66.1971 16.429 66.106 16.8234 66.106 17.2443V17.9205C66.106 18.4972 66.2054 18.986 66.4043 19.3871C66.6065 19.7848 66.8865 20.0881 67.2445 20.2969C67.6025 20.5024 68.0184 20.6051 68.4924 20.6051C68.8006 20.6051 69.079 20.562 69.3276 20.4759C69.5795 20.3864 69.7966 20.2538 69.9789 20.0781C70.1612 19.8991 70.302 19.6771 70.4015 19.4119L71.535 19.7301C71.4157 20.1146 71.2151 20.4527 70.9334 20.7443C70.6517 21.0327 70.3037 21.258 69.8894 21.4205C69.4751 21.5795 69.0094 21.6591 68.4924 21.6591ZM78.8482 15.5739L77.7942 15.8722C77.7279 15.6965 77.6301 15.5258 77.5009 15.3601C77.3749 15.1911 77.2026 15.0518 76.9838 14.9425C76.7651 14.8331 76.485 14.7784 76.1436 14.7784C75.6763 14.7784 75.2869 14.8861 74.9753 15.1016C74.6671 15.3137 74.513 15.5838 74.513 15.9119C74.513 16.2036 74.619 16.4339 74.8311 16.603C75.0433 16.772 75.3747 16.9129 75.8255 17.0256L76.959 17.304C77.6417 17.4697 78.1505 17.7232 78.4853 18.0646C78.82 18.4027 78.9874 18.8385 78.9874 19.3722C78.9874 19.8097 78.8614 20.2008 78.6096 20.5455C78.361 20.8902 78.013 21.1619 77.5655 21.3608C77.1181 21.5597 76.5977 21.6591 76.0044 21.6591C75.2256 21.6591 74.5809 21.4901 74.0705 21.152C73.5601 20.8139 73.2369 20.3201 73.101 19.6705L74.2147 19.392C74.3207 19.803 74.5212 20.1113 74.8162 20.3168C75.1145 20.5223 75.504 20.625 75.9846 20.625C76.5314 20.625 76.9656 20.509 77.2871 20.277C77.6119 20.0417 77.7743 19.7599 77.7743 19.4318C77.7743 19.1667 77.6815 18.9446 77.4959 18.7656C77.3103 18.5833 77.0253 18.4474 76.6408 18.358L75.3681 18.0597C74.6687 17.8939 74.155 17.6371 73.8269 17.2891C73.5021 16.9377 73.3397 16.4986 73.3397 15.9716C73.3397 15.5407 73.4606 15.1596 73.7026 14.8281C73.9479 14.4967 74.281 14.2365 74.7019 14.0476C75.1261 13.8587 75.6067 13.7642 76.1436 13.7642C76.8993 13.7642 77.4926 13.9299 77.9235 14.2614C78.3577 14.5928 78.6659 15.0303 78.8482 15.5739ZM83.0007 21.679C82.5168 21.679 82.0777 21.5878 81.6832 21.4055C81.2888 21.2199 80.9756 20.9531 80.7436 20.6051C80.5116 20.2538 80.3956 19.8295 80.3956 19.3324C80.3956 18.8949 80.4818 18.5402 80.6541 18.2685C80.8265 17.9934 81.0568 17.7779 81.3452 17.6222C81.6335 17.4664 81.9517 17.3504 82.2997 17.2741C82.651 17.1946 83.004 17.1316 83.3587 17.0852C83.8227 17.0256 84.1989 16.9808 84.4872 16.951C84.7789 16.9179 84.991 16.8632 85.1236 16.7869C85.2595 16.7107 85.3274 16.5781 85.3274 16.3892V16.3494C85.3274 15.8589 85.1932 15.4777 84.9247 15.206C84.6596 14.9342 84.2569 14.7983 83.7166 14.7983C83.1565 14.7983 82.7173 14.9209 82.3991 15.1662C82.081 15.4115 81.8572 15.6733 81.728 15.9517L80.6143 15.554C80.8132 15.09 81.0784 14.7287 81.4098 14.4702C81.7446 14.2083 82.1091 14.026 82.5036 13.9233C82.9013 13.8172 83.2924 13.7642 83.6768 13.7642C83.9221 13.7642 84.2038 13.794 84.522 13.8537C84.8435 13.91 85.1534 14.0277 85.4517 14.2067C85.7533 14.3857 86.0036 14.6558 86.2024 15.017C86.4013 15.3783 86.5007 15.8622 86.5007 16.4688V21.5H85.3274V20.4659H85.2678C85.1882 20.6316 85.0556 20.8089 84.87 20.9979C84.6844 21.1868 84.4375 21.3475 84.1293 21.4801C83.821 21.6127 83.4448 21.679 83.0007 21.679ZM83.1797 20.625C83.6437 20.625 84.0348 20.5339 84.353 20.3516C84.6745 20.1693 84.9164 19.9339 85.0788 19.6456C85.2446 19.3572 85.3274 19.054 85.3274 18.7358V17.6619C85.2777 17.7216 85.1683 17.7763 84.9993 17.826C84.8336 17.8724 84.6413 17.9138 84.4226 17.9503C84.2071 17.9834 83.9967 18.0133 83.7912 18.0398C83.589 18.063 83.425 18.0829 83.299 18.0994C82.9941 18.1392 82.709 18.2038 82.4439 18.2933C82.1821 18.3795 81.9699 18.5104 81.8075 18.6861C81.6484 18.8584 81.5689 19.0937 81.5689 19.392C81.5689 19.7997 81.7197 20.108 82.0213 20.3168C82.3262 20.5223 82.7124 20.625 83.1797 20.625ZM95.4632 21.6591C94.8269 21.6591 94.2651 21.4983 93.7779 21.1768C93.2907 20.852 92.9095 20.3946 92.6344 19.8047C92.3593 19.2114 92.2218 18.5104 92.2218 17.7017C92.2218 16.8996 92.3593 16.2036 92.6344 15.6136C92.9095 15.0237 93.2923 14.5679 93.7828 14.2464C94.2734 13.925 94.8401 13.7642 95.4831 13.7642C95.9803 13.7642 96.373 13.8471 96.6614 14.0128C96.9531 14.1752 97.1751 14.3608 97.3276 14.5696C97.4834 14.7751 97.6043 14.9441 97.6905 15.0767H97.79V11.3182H98.9632V21.5H97.8297V20.3267H97.6905C97.6043 20.4659 97.4817 20.6416 97.3226 20.8537C97.1635 21.0625 96.9365 21.2498 96.6415 21.4155C96.3465 21.5779 95.9538 21.6591 95.4632 21.6591ZM95.6223 20.6051C96.093 20.6051 96.4907 20.4825 96.8155 20.2372C97.1403 19.9886 97.3873 19.6456 97.5563 19.2081C97.7253 18.7673 97.8098 18.2585 97.8098 17.6818C97.8098 17.1117 97.727 16.6129 97.5613 16.1854C97.3955 15.7545 97.1503 15.4197 96.8255 15.1811C96.5007 14.9392 96.0996 14.8182 95.6223 14.8182C95.1252 14.8182 94.7109 14.9458 94.3794 15.201C94.0513 15.4529 93.8044 15.7959 93.6387 16.2301C93.4763 16.661 93.3951 17.1449 93.3951 17.6818C93.3951 18.2254 93.4779 18.7192 93.6436 19.1634C93.8127 19.6042 94.0613 19.9555 94.3894 20.2173C94.7208 20.4759 95.1318 20.6051 95.6223 20.6051ZM104.477 21.6591C103.741 21.6591 103.106 21.4967 102.573 21.1719C102.042 20.8438 101.633 20.3864 101.345 19.7997C101.06 19.2098 100.917 18.5237 100.917 17.7415C100.917 16.9593 101.06 16.2699 101.345 15.6733C101.633 15.0734 102.034 14.6061 102.548 14.2713C103.065 13.9332 103.668 13.7642 104.357 13.7642C104.755 13.7642 105.148 13.8305 105.536 13.9631C105.923 14.0956 106.276 14.3111 106.595 14.6094C106.913 14.9044 107.166 15.2955 107.355 15.7827C107.544 16.2699 107.639 16.8698 107.639 17.5824V18.0795H101.752V17.0653H106.445C106.445 16.6345 106.359 16.25 106.187 15.9119C106.018 15.5739 105.776 15.3071 105.461 15.1115C105.15 14.916 104.782 14.8182 104.357 14.8182C103.89 14.8182 103.486 14.9342 103.144 15.1662C102.806 15.3949 102.546 15.6932 102.364 16.0611C102.182 16.429 102.09 16.8234 102.09 17.2443V17.9205C102.09 18.4972 102.19 18.986 102.389 19.3871C102.591 19.7848 102.871 20.0881 103.229 20.2969C103.587 20.5024 104.003 20.6051 104.477 20.6051C104.785 20.6051 105.063 20.562 105.312 20.4759C105.564 20.3864 105.781 20.2538 105.963 20.0781C106.146 19.8991 106.286 19.6771 106.386 19.4119L107.519 19.7301C107.4 20.1146 107.2 20.4527 106.918 20.7443C106.636 21.0327 106.288 21.258 105.874 21.4205C105.459 21.5795 104.994 21.6591 104.477 21.6591Z" fill="#252A2D"/>
<path d="M126.629 20.0029C126.629 20.251 126.271 20.474 125.62 20.474C123.889 20.474 122.699 19.4625 122.699 16.9425C122.699 14.1755 124.204 13.2976 126.227 13.2976C126.968 13.2976 127.71 13.4121 128.586 13.6813L128.611 11.4526C127.798 11.2728 127.058 11.2075 126.247 11.2075C122.765 11.2075 120 12.9843 120 16.8994C120 20.8144 122.72 22.4998 125.757 22.4998C126.79 22.4998 128.136 22.318 129.079 21.9152V16.7628H126.628V20.0019L126.629 20.0029Z" fill="#252A2D"/>
<path d="M133.937 19.982V17.5282H137.824V15.638H133.937C133.937 14.7612 133.937 14.1746 133.983 13.6132C133.983 13.5238 134.118 13.3872 134.23 13.3872C136.138 13.3872 137.241 13.3872 138.296 13.4997V11.4316H131.466V22.275H138.455V20.1828C137.601 20.2511 136.587 20.2732 134.23 20.2732C134.048 20.2732 133.938 20.1386 133.938 19.982" fill="#252A2D"/>
<path d="M147.354 17.4168C147.354 17.5734 147.311 17.6638 147.22 17.6638C147.176 17.6638 147.154 17.6397 147.108 17.6176L143.04 11.4316H140.544V22.275H142.794V15.187C143.712 16.4696 146.232 20.3867 147.266 22.275H149.579V11.4316H147.354V17.4168Z" fill="#252A2D"/>
<path d="M151.037 13.6353C151.913 13.5459 153.06 13.4997 154.092 13.4997C154.271 13.4997 154.408 13.6594 154.408 13.794V22.275H156.879V17.2571C156.879 15.5697 156.879 14.6477 156.924 13.8161C156.924 13.6584 157.06 13.4987 157.214 13.4987C158.251 13.4987 159.44 13.5449 160.271 13.6343V11.4307H151.037V13.6343V13.6353Z" fill="#252A2D"/>
<path d="M164.089 19.982V17.5282H167.972V15.638H164.089C164.089 14.7612 164.089 14.1746 164.132 13.6132C164.132 13.5238 164.267 13.3872 164.379 13.3872C166.29 13.3872 167.391 13.3872 168.447 13.4997V11.4316H161.617V22.275H168.603V20.1828C167.752 20.2511 166.739 20.2732 164.38 20.2732C164.2 20.2732 164.09 20.1386 164.09 19.982" fill="#252A2D"/>
<path d="M184.989 11.4315H182.653C182.067 13.2323 180.344 17.5461 178.929 20.8596L176.537 17.4829C177.775 16.9425 178.585 15.8618 178.585 14.5571C178.585 12.2872 176.72 11.2969 174.517 11.2969C172.877 11.2969 172.426 11.4516 170.696 11.4516V22.2738H173.168V18.3366H173.729C174.022 18.3366 174.247 18.4491 174.626 18.9432L177.1 22.2748H180.809C181.123 21.419 181.439 20.5432 181.821 19.6644H185.619C185.956 20.5432 186.247 21.3728 186.516 22.2748H189.101L184.989 11.4315ZM173.978 16.4263H173.167C173.167 15.6599 173.189 14.311 173.235 13.612C173.257 13.386 173.414 13.2092 174.156 13.2092C175.121 13.2092 175.885 13.6813 175.885 14.7148C175.885 15.8618 175.19 16.4263 173.978 16.4263ZM182.562 17.7068C182.898 16.7406 183.304 15.684 183.776 14.5802C184.225 15.684 184.608 16.6944 184.944 17.7068H182.562Z" fill="#252A2D"/>
<path d="M202.491 6.05033L202.529 5.80727C202.552 5.64456 202.577 5.48586 202.602 5.32717L202.613 5.25586C202.363 5.40049 202.119 5.55014 201.881 5.70181C201.726 5.80325 201.581 5.89866 201.437 5.99609L201.39 6.02723C201.258 6.11662 201.129 6.20801 201.002 6.29941L200.939 6.34561C200.814 6.43501 200.694 6.5244 200.574 6.6168L200.505 6.66802C200.387 6.75942 200.268 6.85182 200.152 6.94523L200.088 6.99746C199.971 7.09288 199.854 7.18829 199.737 7.28672L199.68 7.33594C199.562 7.43738 199.444 7.53882 199.329 7.64227L199.284 7.68245C199.161 7.79193 199.042 7.90241 198.925 8.01389L198.898 8.04001C198.124 8.77421 197.406 9.57571 196.762 10.4214C196.654 10.563 196.554 10.7006 196.454 10.8372L196.417 10.8904C196.33 11.013 196.243 11.1365 196.158 11.2621L196.111 11.3304C196.025 11.4579 195.947 11.5754 195.871 11.694L195.807 11.7914C195.736 11.9049 195.664 12.0194 195.594 12.1339L195.528 12.2434C195.46 12.3568 195.394 12.4703 195.328 12.5848L195.263 12.7003C195.197 12.8158 195.135 12.9303 195.072 13.0469L195.011 13.1614C194.947 13.2819 194.886 13.4004 194.826 13.5199L194.771 13.6294C194.705 13.759 194.642 13.8905 194.582 14.0211L194.545 14.0995C194.395 14.4229 194.251 14.7503 194.122 15.0767L194.115 15.0938C194.053 15.2485 193.994 15.4051 193.936 15.5608L193.885 15.7004C193.842 15.8169 193.8 15.9335 193.76 16.053L193.7 16.2338C193.667 16.3372 193.632 16.4437 193.599 16.5491L193.538 16.75C193.508 16.8505 193.478 16.9509 193.45 17.0523C193.439 17.0895 193.428 17.1247 193.418 17.1628C193.523 17.0825 193.631 17.0001 193.735 16.9218C193.93 16.7771 194.118 16.6385 194.308 16.4979L194.511 16.3533C194.631 16.2659 194.753 16.1775 194.873 16.0911L195.117 15.9214C195.223 15.8461 195.33 15.7697 195.438 15.6974L195.695 15.5217C195.796 15.4513 195.896 15.382 195.997 15.3148C196.085 15.2555 196.175 15.1962 196.261 15.137C196.359 15.0727 196.457 15.0074 196.556 14.9441C196.645 14.8849 196.734 14.8266 196.824 14.7684C196.921 14.7071 197.018 14.6458 197.114 14.5846C197.203 14.5283 197.294 14.4721 197.384 14.4158C197.47 14.3616 197.555 14.3084 197.642 14.2551L197.939 14.0743C198.036 14.0151 198.132 13.9568 198.23 13.9006L198.491 13.7459C198.591 13.6877 198.688 13.6314 198.788 13.5762L199.044 13.4295C199.136 13.3763 199.227 13.3271 199.317 13.2769L199.595 13.1242C199.726 13.0529 199.857 12.9826 199.989 12.9133C200.077 12.8661 200.165 12.8199 200.251 12.7747C200.396 12.6993 200.54 12.626 200.683 12.5527L200.945 12.4241C201.041 12.3769 201.136 12.3287 201.232 12.2815L201.551 12.1289C201.591 12.1108 201.63 12.0917 201.668 12.0736L201.686 11.9661C201.729 11.6809 201.769 11.3967 201.807 11.1215L202.427 6.49527C202.449 6.34561 202.47 6.19697 202.492 6.04932L202.491 6.05033Z" fill="#252A2D"/>
<path d="M212.582 2.58936C211.026 2.60944 207.568 2.81132 203.46 4.81607L203.444 4.90948C203.222 6.3116 202.972 8.09438 202.657 10.52L202.564 11.225C202.544 11.3787 202.522 11.5354 202.5 11.6911H202.503V11.6981C202.743 11.5926 202.996 11.4882 203.268 11.3757L203.402 11.3215C203.688 11.206 203.983 11.0925 204.282 10.982L204.426 10.9277C204.739 10.8153 205.028 10.7138 205.306 10.6234L205.419 10.5852C205.751 10.4788 206.048 10.3864 206.331 10.304C206.601 10.2267 206.868 10.1524 207.138 10.0821C207.192 10.068 207.246 10.0539 207.302 10.0409L207.462 10.0017C207.623 9.96052 207.784 9.92035 207.945 9.88218C208.017 9.86611 208.089 9.85004 208.16 9.83296L208.36 9.78978C208.489 9.76065 208.621 9.73052 208.752 9.7044C208.828 9.68833 208.905 9.67427 208.983 9.6582L209.209 9.61501C209.326 9.59292 209.442 9.56981 209.56 9.54872C209.643 9.53265 209.727 9.5196 209.812 9.50554L210 9.4754C210.122 9.45431 210.244 9.43422 210.367 9.41615C210.455 9.40309 210.541 9.39003 210.628 9.37697L210.802 9.35387C210.925 9.3368 211.05 9.31973 211.173 9.30365C211.269 9.2916 211.366 9.28055 211.462 9.27051L211.583 9.25645C211.716 9.24239 211.848 9.22632 211.98 9.21326C212.079 9.20422 212.177 9.19618 212.276 9.18815L212.482 9.17007C212.54 9.16505 212.599 9.15902 212.66 9.154H212.686H212.69L212.765 9.14898C212.812 9.14496 212.861 9.14094 212.908 9.13693L212.962 9.13391C213.08 7.26978 212.925 5.12844 212.583 2.58936H212.582Z" fill="#252A2D"/>
<path d="M212.414 9.94537L212.367 9.95039C212.252 9.96043 212.136 9.96947 212.02 9.98152C211.875 9.99458 211.731 10.0117 211.586 10.0277L211.549 10.0317C211.446 10.0438 211.34 10.0558 211.239 10.0689C211.094 10.087 210.95 10.1071 210.806 10.1272L210.748 10.1342C210.651 10.1483 210.554 10.1623 210.454 10.1774C210.323 10.1975 210.191 10.2196 210.058 10.2407L209.923 10.2638C209.839 10.2778 209.756 10.2919 209.671 10.3069C209.541 10.331 209.411 10.3562 209.28 10.3813L209.114 10.4134C209.039 10.4285 208.963 10.4425 208.888 10.4596C208.755 10.4877 208.622 10.5159 208.488 10.545L208.33 10.5821C208.256 10.5972 208.181 10.6133 208.107 10.6314C207.96 10.6655 207.814 10.7027 207.667 10.7398L207.49 10.785C207.436 10.7981 207.379 10.8101 207.325 10.8262C207.064 10.8945 206.805 10.9648 206.546 11.0401C205.177 11.4369 203.767 11.9632 202.358 12.603C202.21 13.4828 202.026 14.3717 201.812 15.2465C201.759 15.4645 201.705 15.6754 201.65 15.8873L201.632 15.9556C201.582 16.1444 201.531 16.3322 201.477 16.5201L201.444 16.6346C201.395 16.8063 201.346 16.976 201.294 17.1448L201.248 17.2934C201.198 17.4501 201.15 17.6058 201.099 17.7615L201.041 17.9372C200.993 18.0819 200.945 18.2265 200.896 18.3691L200.826 18.566C200.779 18.6996 200.732 18.8342 200.682 18.9667C200.656 19.038 200.63 19.1094 200.602 19.1807C200.555 19.3062 200.506 19.4318 200.457 19.5553L200.369 19.7823C200.322 19.9008 200.273 20.0193 200.226 20.1368L200.128 20.3709C200.079 20.4844 200.029 20.5979 199.981 20.7083L199.875 20.9454C199.83 21.0498 199.782 21.1523 199.735 21.2537L199.7 21.3321C199.672 21.3913 199.643 21.4506 199.616 21.5088C199.564 21.6173 199.512 21.7248 199.46 21.8322L199.429 21.8945C199.403 21.9487 199.376 22.004 199.348 22.0582L199.324 22.1074C199.287 22.1878 199.247 22.2742 199.208 22.3565C200.083 22.2722 201.027 22.0522 202.03 21.6876L202.039 21.5771L202.047 21.4998C202.049 21.4807 202.052 21.4616 202.054 21.4415L202.066 21.321C202.069 21.2919 202.074 21.2628 202.078 21.2326L202.086 21.1724C202.097 21.095 202.106 21.0167 202.118 20.9383C202.13 20.861 202.144 20.7837 202.158 20.7063C202.171 20.628 202.186 20.5506 202.199 20.4733C202.215 20.397 202.231 20.3206 202.246 20.2453C202.264 20.168 202.281 20.0906 202.298 20.0153C202.316 19.941 202.337 19.8657 202.355 19.7933C202.376 19.717 202.397 19.6407 202.417 19.5653C202.439 19.493 202.461 19.4207 202.485 19.3494L202.49 19.3283C202.513 19.261 202.533 19.1907 202.557 19.1244C202.578 19.0601 202.6 18.9959 202.624 18.9326L202.639 18.8904C202.663 18.8231 202.686 18.7558 202.713 18.6895C202.737 18.6273 202.762 18.564 202.789 18.5017L202.8 18.4736C202.83 18.4043 202.856 18.334 202.888 18.2667C202.912 18.2104 202.937 18.1562 202.963 18.102L202.995 18.0306C203.023 17.9704 203.05 17.9111 203.081 17.8519C203.106 17.7996 203.132 17.7474 203.159 17.6952L203.191 17.6329C203.223 17.5706 203.255 17.5074 203.288 17.4471C203.317 17.3939 203.348 17.3426 203.378 17.2904L203.423 17.2101C203.454 17.1568 203.485 17.1046 203.514 17.0514C203.547 16.9971 203.582 16.9429 203.616 16.8877L203.628 16.8656C203.677 16.7902 203.715 16.729 203.755 16.6667C203.785 16.6195 203.819 16.5713 203.852 16.5241L203.901 16.4528C203.937 16.3995 203.973 16.3473 204.012 16.2941C204.047 16.2469 204.081 16.2007 204.117 16.1525L204.163 16.0902C204.203 16.0369 204.242 15.9847 204.283 15.9345C204.319 15.8913 204.354 15.8471 204.388 15.8049L204.446 15.7346C204.485 15.6834 204.528 15.6352 204.569 15.585C204.606 15.5398 204.647 15.4976 204.686 15.4544L204.744 15.3901C204.785 15.3429 204.827 15.2967 204.868 15.2505C204.909 15.2073 204.952 15.1661 204.992 15.124L205.057 15.0577C205.099 15.0125 205.141 14.9703 205.184 14.9271C205.223 14.8899 205.262 14.8528 205.302 14.8166L205.379 14.7423C205.424 14.7011 205.467 14.6589 205.513 14.6188C205.553 14.5836 205.591 14.5485 205.634 14.5133L205.713 14.444C205.758 14.4028 205.806 14.3636 205.854 14.3245C205.897 14.2893 205.939 14.2542 205.983 14.22L206.075 14.1477C206.118 14.1136 206.163 14.0784 206.208 14.0432C206.254 14.0081 206.299 13.975 206.345 13.9418L206.441 13.8715C206.485 13.8394 206.529 13.8082 206.571 13.7781C206.616 13.748 206.66 13.7178 206.705 13.6897L206.813 13.6184C206.857 13.5863 206.903 13.5561 206.95 13.527C206.997 13.4959 207.048 13.4667 207.099 13.4376L207.194 13.3783C207.241 13.3492 207.289 13.3201 207.337 13.293C207.386 13.2649 207.437 13.2387 207.486 13.2096L207.59 13.1544C207.637 13.1283 207.685 13.1001 207.735 13.075C207.788 13.0469 207.842 13.0198 207.897 12.9937L208 12.9414C208.048 12.9183 208.094 12.8962 208.143 12.8721C208.193 12.848 208.246 12.8259 208.297 12.8038L208.414 12.7526C208.464 12.7305 208.511 12.7094 208.56 12.6883C208.616 12.6642 208.674 12.6431 208.732 12.62L208.853 12.5728C208.898 12.5548 208.944 12.5377 208.989 12.5206C209.046 12.5005 209.103 12.4814 209.161 12.4603L209.293 12.4151C209.336 12.4001 209.38 12.385 209.423 12.372C209.485 12.3519 209.547 12.3348 209.609 12.3157L209.744 12.2765C209.785 12.2645 209.825 12.2514 209.868 12.2404C209.932 12.2233 209.996 12.2062 210.06 12.1932L210.193 12.16C210.234 12.15 210.278 12.1379 210.321 12.1289C210.392 12.1128 210.465 12.0988 210.539 12.0847L210.663 12.0596C210.703 12.0516 210.742 12.0445 210.781 12.0375C210.868 12.0224 210.954 12.0084 211.042 11.9963L211.155 11.9792C211.185 11.9752 211.216 11.9682 211.248 11.9652C211.404 11.9441 211.562 11.927 211.721 11.913C211.819 11.9039 211.92 11.8989 212.024 11.8929L212.471 11.8768L212.469 11.8798H212.531C212.696 11.2561 212.814 10.6012 212.888 9.9082C212.73 9.91925 212.571 9.93231 212.413 9.94537H212.414Z" fill="#252A2D"/>
<path d="M212.03 12.6609C211.872 12.675 211.782 12.678 211.782 12.678C211.708 12.685 211.418 12.7171 211.354 12.7252C211.325 12.7292 211.296 12.7342 211.27 12.7382L211.216 12.7463C211.109 12.7633 211.016 12.7754 210.926 12.7925C210.889 12.7975 210.854 12.8055 210.82 12.8126L210.713 12.8336C210.643 12.8477 210.573 12.8618 210.503 12.8768C210.466 12.8849 210.425 12.8949 210.387 12.904L210.282 12.9301C210.218 12.9461 210.152 12.9622 210.088 12.9793C210.044 12.9893 210.002 13.0024 209.96 13.0144L209.87 13.0406C209.806 13.0586 209.741 13.0777 209.679 13.0978C209.634 13.1119 209.59 13.1269 209.546 13.141L209.456 13.1721C209.396 13.1912 209.337 13.2113 209.278 13.2324C209.237 13.2485 209.193 13.2645 209.151 13.2816L209.069 13.3127C209.009 13.3368 208.946 13.3599 208.885 13.3851C208.833 13.4072 208.78 13.4303 208.728 13.4513L208.706 13.4624C208.636 13.4925 208.57 13.5217 208.501 13.5538C208.455 13.5749 208.409 13.597 208.365 13.6191L208.297 13.6522C208.239 13.6803 208.181 13.7075 208.125 13.7376C208.072 13.7657 208.019 13.7928 207.966 13.822C207.886 13.8652 207.822 13.9003 207.758 13.9365C207.701 13.9686 207.646 14.0028 207.588 14.0369C207.526 14.0741 207.462 14.1122 207.401 14.1504C207.345 14.1845 207.29 14.2207 207.233 14.2569C207.173 14.297 207.114 14.3372 207.054 14.3784C207 14.4156 206.945 14.4537 206.892 14.4929C206.833 14.5341 206.775 14.5773 206.717 14.6204C206.665 14.6596 206.612 14.6998 206.56 14.741C206.504 14.7852 206.447 14.8304 206.391 14.8766C206.34 14.9177 206.29 14.9599 206.24 15.0031C206.185 15.0503 206.13 15.0985 206.077 15.1457C206.027 15.1889 205.977 15.2331 205.93 15.2783C205.877 15.3275 205.826 15.3778 205.774 15.428C205.726 15.4732 205.678 15.5194 205.633 15.5676C205.584 15.6188 205.533 15.671 205.483 15.7223C205.437 15.7695 205.392 15.8177 205.349 15.8669C205.299 15.9201 205.252 15.9733 205.205 16.0296C205.162 16.0788 205.118 16.127 205.074 16.1772C205.03 16.2335 204.983 16.2897 204.939 16.347L204.919 16.3701C204.884 16.4133 204.851 16.4575 204.819 16.4996C204.772 16.5579 204.729 16.6172 204.687 16.6764C204.64 16.7367 204.605 16.7849 204.571 16.8331C204.53 16.8934 204.487 16.9546 204.444 17.0149L204.421 17.0541C204.392 17.0952 204.366 17.1364 204.337 17.1776C204.3 17.2369 204.264 17.2961 204.227 17.3564L204.196 17.4076C204.17 17.4498 204.144 17.49 204.12 17.5311C204.088 17.5854 204.058 17.6406 204.027 17.6959L203.988 17.7672C203.964 17.8094 203.939 17.8526 203.917 17.8947C203.886 17.954 203.857 18.0122 203.825 18.0725L203.787 18.1509C203.767 18.192 203.746 18.2302 203.728 18.2694C203.702 18.3276 203.674 18.3869 203.647 18.4451L203.606 18.5385C203.589 18.5767 203.57 18.6139 203.554 18.653C203.527 18.7163 203.502 18.7806 203.477 18.8449L203.442 18.9333C203.427 18.9704 203.412 19.0076 203.399 19.0427C203.371 19.1151 203.346 19.1864 203.321 19.2607L203.292 19.3481C203.28 19.3782 203.268 19.4103 203.257 19.4435C203.226 19.5419 203.195 19.6414 203.166 19.7428L203.152 19.789C203.145 19.8091 203.14 19.8302 203.133 19.8493C203.095 19.9869 203.06 20.1255 203.026 20.2631L203.01 20.3464C202.984 20.4579 202.96 20.5704 202.937 20.6839L202.932 20.715L202.848 21.3568C204.42 20.6879 206.123 19.6835 207.93 18.2965C210.176 16.573 211.558 14.8002 212.303 12.6519C212.102 12.6589 212.032 12.6589 212.032 12.6589L212.03 12.6609Z" fill="#252A2D"/>
<path d="M192.687 16.9106C192.726 16.771 192.765 16.6414 192.805 16.5139L192.836 16.4044C192.889 16.2316 192.946 16.0589 193.003 15.8871C193.014 15.853 193.027 15.8188 193.04 15.7867L193.06 15.7224C193.101 15.6059 193.142 15.4904 193.184 15.3759C193.2 15.3287 193.22 15.2795 193.238 15.2323L193.287 15.1007C193.316 15.0244 193.345 14.947 193.377 14.8707C193.402 14.8064 193.43 14.7411 193.456 14.6758L193.489 14.5945C193.518 14.5202 193.549 14.4468 193.58 14.3745C193.608 14.3072 193.637 14.2389 193.669 14.1726L193.691 14.1194C193.726 14.0411 193.761 13.9617 193.797 13.8834C193.837 13.796 193.877 13.7086 193.919 13.6212C193.954 13.5489 193.99 13.4746 194.026 13.4013C194.071 13.3119 194.113 13.2235 194.159 13.1331C194.194 13.0648 194.23 12.9945 194.265 12.9262C194.313 12.8348 194.362 12.7434 194.41 12.653C194.445 12.5887 194.48 12.5265 194.516 12.4622C194.566 12.3668 194.621 12.2733 194.673 12.1799C194.707 12.1227 194.741 12.0654 194.773 12.0102C194.83 11.9108 194.889 11.8133 194.949 11.7169L195.04 11.5703C195.104 11.4668 195.169 11.3634 195.235 11.2599L195.306 11.1515C195.381 11.039 195.455 10.9245 195.534 10.812L195.552 10.7869C196.023 10.0999 196.543 9.43195 197.097 8.80421L197.128 8.76906C197.226 8.65757 197.326 8.54709 197.429 8.43861L197.485 8.37634C197.581 8.27189 197.681 8.16944 197.781 8.06599L197.852 7.99367C197.949 7.89424 198.049 7.79481 198.147 7.69738L198.228 7.62105C198.328 7.52362 198.427 7.43021 198.528 7.3358L198.611 7.25746C198.715 7.16506 198.816 7.07265 198.92 6.98226L199.004 6.90693C199.109 6.81453 199.215 6.72514 199.322 6.63675L199.405 6.56645C199.513 6.47505 199.623 6.38666 199.734 6.29827L199.806 6.24102C199.923 6.14963 200.037 6.06024 200.154 5.97085L200.205 5.93368C200.714 5.55302 201.249 5.18843 201.796 4.85196L201.903 4.78467C201.975 4.74048 202.048 4.6993 202.12 4.65711L202.233 4.59082C202.284 4.56069 202.334 4.53157 202.384 4.50344C202.445 4.46829 202.507 4.43314 202.568 4.39899L202.683 4.33571C202.712 4.31964 202.74 4.30357 202.769 4.2885C203 2.93861 203.242 1.78659 203.508 0.771156L203.577 0.500977C202.16 0.970023 200.896 1.43505 199.771 1.90209H199.77C194.591 4.0595 192.374 6.33343 191.881 9.76038C191.586 11.8033 191.905 14.255 192.574 17.3334C192.611 17.1908 192.648 17.0502 192.686 16.9126L192.687 16.9106Z" fill="#252A2D"/>
<path d="M198.311 22.3895L198.425 22.1745C198.478 22.0741 198.529 21.9697 198.583 21.8662L198.716 21.6081C198.769 21.4976 198.822 21.3861 198.876 21.2746L198.977 21.0667C199.034 20.9452 199.089 20.8216 199.145 20.6971L199.228 20.5153C199.394 20.1417 199.555 19.758 199.705 19.3743L199.765 19.2186C199.821 19.077 199.875 18.9354 199.93 18.7898L200.007 18.5758C200.052 18.4503 200.096 18.3237 200.142 18.1982C200.163 18.1379 200.181 18.0807 200.203 18.0204L200.226 17.9561C200.265 17.8356 200.306 17.7161 200.346 17.5956C200.37 17.5222 200.393 17.4489 200.417 17.3746L200.428 17.3395C200.465 17.2219 200.504 17.1044 200.539 16.9869C200.567 16.8975 200.593 16.8081 200.62 16.7187C200.655 16.6022 200.688 16.4857 200.721 16.3682C200.747 16.2758 200.774 16.1834 200.799 16.091C200.832 15.9745 200.864 15.86 200.895 15.7445C200.919 15.6491 200.944 15.5547 200.969 15.4592C200.999 15.3447 201.027 15.2292 201.056 15.1137C201.08 15.0163 201.103 14.9189 201.127 14.8205C201.155 14.706 201.181 14.5925 201.206 14.478C201.229 14.3775 201.252 14.2791 201.273 14.1777C201.298 14.0632 201.322 13.9497 201.347 13.8342C201.368 13.7327 201.389 13.6313 201.408 13.5298C201.429 13.4314 201.448 13.332 201.466 13.2325L201.492 13.0949C201.499 13.0628 201.504 13.0306 201.511 12.9995L201.335 13.0849C201.259 13.1231 201.182 13.1602 201.105 13.1984L200.886 13.3109C200.777 13.3661 200.668 13.4214 200.561 13.4776C200.489 13.5138 200.419 13.5509 200.351 13.5881C200.239 13.6483 200.124 13.7086 200.013 13.7699L199.813 13.8783C199.695 13.9426 199.579 14.0079 199.462 14.0722L199.275 14.1787C199.152 14.249 199.031 14.3183 198.908 14.3886L198.734 14.493C198.607 14.5684 198.479 14.6437 198.352 14.72L198.19 14.8174C198.058 14.8988 197.923 14.9812 197.792 15.0645L197.643 15.1549C197.504 15.2443 197.363 15.3347 197.222 15.4251L197.095 15.5065C196.946 15.6039 196.798 15.7023 196.646 15.8017L196.546 15.869C196.383 15.9775 196.219 16.089 196.056 16.2015L195.994 16.2447C195.811 16.3702 195.628 16.4988 195.444 16.6283C194.677 17.1707 193.899 17.7523 193.122 18.3619L192.9 18.5357C193.738 20.9552 195.641 22.3583 198.314 22.3905L198.311 22.3895Z" fill="#252A2D"/>
<path d="M212.859 20.185C212.859 21.3511 211.922 22.2761 210.732 22.2761C209.541 22.2761 208.595 21.3511 208.595 20.185C208.595 19.0189 209.543 18.1079 210.746 18.1079C211.949 18.1079 212.859 19.0189 212.859 20.185ZM209.126 20.185C209.126 21.111 209.821 21.8442 210.747 21.8442C211.646 21.8573 212.331 21.111 212.331 20.198C212.331 19.285 211.647 18.5267 210.723 18.5267C209.799 18.5267 209.127 19.273 209.127 20.185M210.407 21.2627H209.924V19.1856C210.115 19.1585 210.377 19.1203 210.723 19.1203C211.114 19.1203 211.291 19.1856 211.432 19.2861C211.557 19.3734 211.647 19.5261 211.647 19.728C211.647 19.9811 211.454 20.1478 211.214 20.2221V20.2482C211.419 20.3115 211.52 20.4742 211.581 20.7545C211.647 21.0708 211.697 21.1843 211.734 21.2607H211.226C211.164 21.1843 211.126 21.0066 211.065 20.7545C211.024 20.5365 210.897 20.4371 210.632 20.4371H210.405V21.2617L210.407 21.2627ZM210.419 20.0976H210.645C210.911 20.0976 211.126 20.0082 211.126 19.7933C211.126 19.6034 210.984 19.4749 210.682 19.4749C210.557 19.4749 210.47 19.4889 210.418 19.502V20.0986L210.419 20.0976Z" fill="#252A2D"/>
</svg>
