<svg width="150" height="60" viewBox="0 0 150 60" fill="none" xmlns="http://www.w3.org/2000/svg">
<path d="M95.6416 6.37108C95.0267 6.49282 91.0486 5.74291 91.0486 5.74291C91.0486 5.74291 94.0129 7.29631 94.0802 7.70535C94.1571 8.13875 92.9079 10.7099 92.9079 10.7099C92.9079 10.7099 95.017 8.52831 95.6608 7.98292C96.1173 7.59335 97.0157 7.59822 97.6931 7.71022C98.3177 7.80761 102.152 8.44553 106.514 6.15682C109.363 4.66673 109.378 4.36968 109.378 4.36968C109.378 4.36968 107.196 2.92828 103.43 3.48829C99.2353 4.11159 96.2518 6.2396 95.6368 6.36621" fill="#FFA300"/>
<path d="M37.7725 54.9257C37.0422 55.1254 33.0689 54.2002 33.0689 54.2002C33.0689 54.2002 36.0141 56.036 36.2735 56.3866C36.5281 56.7372 35.7306 59.9998 35.7306 59.9998C35.7306 59.9998 37.5755 57.4384 38.2866 56.6544C38.7238 56.1869 39.8192 56.2989 40.3525 56.3817C40.881 56.4645 46.1322 57.4579 51.0039 53.9323C54.1893 51.6241 54.1412 51.1859 54.1412 51.1859C54.1412 51.1859 51.1529 49.1066 46.6271 50.0269C42.0965 50.9424 38.5028 54.7212 37.7773 54.9257" fill="#FFA300"/>
<path d="M126.444 5.43118C125.387 5.59187 119.967 3.62456 119.967 3.62456C119.967 3.62456 123.801 6.68266 124.104 7.22319C124.407 7.75884 122.754 12.2048 122.754 12.2048C122.754 12.2048 125.762 8.92267 126.886 7.94389C127.573 7.35467 129.096 7.70041 129.821 7.90493C130.552 8.11919 137.753 10.3982 145.162 6.26388C149.995 3.57099 150 2.93795 150 2.93795C150 2.93795 146.147 -0.470767 139.651 0.0551488C133.156 0.581065 127.501 5.27048 126.444 5.43118Z" fill="#CE0058"/>
<path d="M5.31372 46.8811C4.26635 47.183 0 45.4495 0 45.4495C0 45.4495 4.15104 47.9281 4.29998 48.3615C4.45372 48.7949 1.71038 52.8415 1.71038 52.8415C1.71038 52.8415 4.45372 50.4408 5.57796 49.5107C6.57728 48.6877 8.98431 48.3858 10.3872 48.5027C11.7373 48.6244 17.4017 49.4182 24.5363 44.6022C29.1966 41.4564 29.1534 40.8867 29.1534 40.8867C29.1534 40.8867 25.036 38.3886 18.55 39.8202C12.064 41.2616 6.36108 46.5743 5.31372 46.8763" fill="#CE0058"/>
<path d="M59.0076 43.2776C58.3302 43.3458 55.9232 41.7972 55.9232 41.7972C55.9232 41.7972 58.1813 43.784 58.2245 44.0665C58.2726 44.3489 56.149 46.5013 56.149 46.5013C56.149 46.5013 58.0852 45.352 58.8779 44.9089C59.5794 44.5193 61.0783 44.6119 61.9239 44.8407C62.7311 45.0696 66.1038 46.1994 70.9947 44.0665C74.1849 42.6738 74.2233 42.3232 74.2233 42.3232C74.2233 42.3232 71.9892 40.3315 67.8718 40.4727C63.7544 40.6188 59.6851 43.2094 59.0076 43.2727" fill="#CE0058"/>
<path d="M23.403 30.0567C22.37 30.5534 21.1449 30.8017 19.9678 30.8017C15.4276 30.8017 11.5312 28.3669 11.5312 22.1192C11.5312 15.8715 15.5573 13.2712 20.0927 13.2712C21.1689 13.2712 22.4181 13.4221 23.4078 13.7192V16.6312C22.3989 16.2075 21.2938 15.9592 20.0639 15.9592C16.8786 15.9592 14.5965 17.6002 14.5965 22.051C14.5965 26.5019 17.0755 28.0942 20.0927 28.0942C21.3659 28.0942 22.3748 27.8946 23.4078 27.4466V30.0567H23.403Z" fill="#CE0058"/>
<path d="M35.1546 24.5882C35.1546 28.2453 33.0695 30.7774 29.8553 30.7774C26.6411 30.7774 24.58 28.2453 24.58 24.5882C24.58 20.9311 26.6892 18.4476 29.8553 18.4476C33.0214 18.4476 35.1546 20.8873 35.1546 24.5882ZM27.5011 24.5882C27.5011 27.1009 28.5821 28.3426 29.9322 28.3426C31.2822 28.3426 32.2623 27.1983 32.2623 24.5882C32.2623 21.9781 31.1813 20.8581 29.8072 20.8581C28.4332 20.8581 27.5011 21.9781 27.5011 24.5882Z" fill="#CE0058"/>
<path d="M51.9985 30.4317H49.2984V22.9958C49.2984 21.4522 48.7122 20.8873 47.4823 20.8873C46.7712 20.8873 45.719 21.1795 45.719 21.7541C45.7431 22.0316 45.7911 22.3725 45.7911 22.7523V30.4317H43.091V22.9958C43.091 21.4278 42.476 20.8873 41.4239 20.8873C40.5158 20.8873 39.6078 21.1356 39.6078 21.9781V30.4317H36.9125V19.0466C39.2907 19.0466 40.0498 18.5012 41.8178 18.5012C43.4177 18.5012 44.0519 18.8762 44.638 19.3972C45.5221 18.8226 46.6511 18.5012 48.0972 18.5012C50.4274 18.5012 51.9936 19.5725 51.9936 22.6306V30.4366L51.9985 30.4317Z" fill="#CE0058"/>
<path d="M53.9779 35.8758C54.0259 33.2706 54.0788 31.4299 54.0788 28.1722V18.8469C55.7459 18.8469 56.8029 18.4524 58.446 18.4524C61.4152 18.4524 63.8943 20.6097 63.8943 24.6709C63.8943 28.7322 61.2422 30.7092 58.7919 30.7092C57.735 30.7092 57.1248 30.4609 56.7548 30.1833V35.8807H53.9779V35.8758ZM58.2202 20.785C57.3122 20.785 56.75 21.1843 56.75 21.5787V27.5488C56.75 27.9725 57.389 28.3426 58.2202 28.3426C59.9402 28.3426 60.9203 27.1982 60.9203 24.6125C60.9203 22.0267 59.9354 20.7801 58.2202 20.7801" fill="#CE0058"/>
<path d="M71.2207 22.7524V22.3044C71.2207 21.3645 70.5769 20.785 69.4287 20.785C68.2804 20.785 67.0697 21.0139 65.8446 21.5788V19.0223C67.1177 18.6424 68.2756 18.4476 69.6449 18.4476C72.2969 18.4476 73.94 19.5384 73.94 22.2751C73.94 24.1938 73.868 25.8543 73.868 27.6999C73.868 28.6689 73.9208 29.7353 73.9929 30.3635C72.0279 30.3635 70.9757 30.6801 69.3038 30.6801C66.4595 30.6801 65.0374 29.3409 65.0374 27.0814C65.0374 24.8219 66.9015 22.8838 71.2207 22.7572M71.2207 24.7927C68.9819 24.8658 67.8336 25.5621 67.8336 26.8818C67.8336 27.7729 68.5206 28.4011 69.5728 28.4011C70.5529 28.4011 71.0189 28.1284 71.1198 27.7729C71.1919 27.4028 71.2207 26.2828 71.2207 24.7927Z" fill="#CE0058"/>
<path d="M76.031 18.7933H78.5822V19.889C79.2692 18.7933 80.4223 18.4183 81.5513 18.4183C82.0414 18.4183 82.4354 18.4719 82.8053 18.5206V21.4034C82.3393 21.1794 81.6042 21.082 80.9124 21.082C79.8073 21.082 78.832 21.53 78.7792 22.5039C78.7311 24.4712 78.7311 27.4807 78.7311 30.4365H76.031V18.7933Z" fill="#CE0058"/>
<path d="M86.6199 18.7934H89.9301V21.1795H86.6199C86.6199 23.6435 86.5959 25.3333 86.5959 27.1496C86.5959 28.0164 87.1099 28.367 88.0132 28.367C88.7531 28.367 89.3392 28.2453 89.9301 27.919V30.3295C89.1182 30.6314 88.287 30.7775 87.3069 30.7775C85.3419 30.7775 83.8958 29.8571 83.8958 27.695V16.68L86.6199 15.039V18.7934Z" fill="#CE0058"/>
<path d="M97.515 22.7523V22.2994C97.515 21.3596 96.876 20.7801 95.723 20.7801C94.5699 20.7801 93.3688 21.009 92.1388 21.5738V19.0173C93.412 18.6375 94.5699 18.4427 95.944 18.4427C98.5912 18.4427 100.234 19.5335 100.234 22.2702C100.234 24.1888 100.162 25.8493 100.162 27.6949C100.162 28.664 100.21 29.7304 100.287 30.3586C98.3222 30.3586 97.2652 30.6751 95.598 30.6751C92.7538 30.6751 91.3269 29.336 91.3269 27.0765C91.3269 24.817 93.1958 22.8789 97.5102 22.7523M97.5102 24.7878C95.2761 24.8608 94.1231 25.5572 94.1231 26.8768C94.1231 27.768 94.8101 28.3961 95.8671 28.3961C96.8472 28.3961 97.3084 28.1234 97.4093 27.768C97.4814 27.3979 97.5102 26.2779 97.5102 24.7878Z" fill="#CE0058"/>
<path d="M117.445 30.4317H114.75V22.9958C114.75 21.4522 114.164 20.8873 112.934 20.8873C112.223 20.8873 111.166 21.1795 111.166 21.7541C111.19 22.0317 111.238 22.3725 111.238 22.7524V30.4317H108.538V22.9958C108.538 21.4278 107.927 20.8873 106.87 20.8873C105.962 20.8873 105.054 21.1357 105.054 21.9781V30.4317H102.354V19.0417C104.732 19.0417 105.496 18.4963 107.264 18.4963C108.855 18.4963 109.494 18.8713 110.085 19.3923C110.964 18.8177 112.098 18.4963 113.544 18.4963C115.869 18.4963 117.44 19.5677 117.44 22.6209V30.4317H117.445Z" fill="#CE0058"/>
<path d="M129.705 24.5882C129.705 28.2453 127.62 30.7774 124.406 30.7774C121.192 30.7774 119.135 28.2453 119.135 24.5882C119.135 20.9311 121.245 18.4476 124.406 18.4476C127.567 18.4476 129.705 20.8873 129.705 24.5882ZM122.047 24.5882C122.047 27.1009 123.128 28.3426 124.478 28.3426C125.828 28.3426 126.813 27.2032 126.813 24.5882C126.813 21.9732 125.732 20.8581 124.358 20.8581C122.984 20.8581 122.047 21.9781 122.047 24.5882Z" fill="#CE0058"/>
<path d="M135.322 18.4476C136.23 18.4476 136.994 18.5206 137.974 18.7933V21.384C136.821 20.9116 136.009 20.785 135.226 20.785C134.294 20.785 133.708 21.1843 133.708 21.7833C133.708 23.5704 138.517 23.4 138.517 26.9791C138.517 28.9172 137.143 30.7871 133.953 30.7871C132.949 30.7871 131.916 30.6849 130.959 30.3927V27.9579C131.892 28.2793 132.997 28.4303 133.784 28.4303C135.082 28.4303 135.745 27.9336 135.745 27.1642C135.745 25.1968 130.911 25.4939 130.911 22.09C130.911 19.8549 132.583 18.4622 135.327 18.4622" fill="#CE0058"/>
<path d="M105.5 47.6018C105.5 49.949 103.497 51.4098 100.734 51.4098C99.2931 51.4098 98.6157 51.2735 97.1936 51.2735V37.9795C98.6541 37.9795 99.2547 37.7799 100.504 37.7799C103.324 37.7799 104.727 39.158 104.727 41.1545C104.727 42.4352 103.929 43.6185 102.373 44.0129C104.261 44.3879 105.505 45.9462 105.505 47.6018H105.5ZM98.9424 43.4188H99.6054C101.998 43.4188 102.834 42.4108 102.834 41.3054C102.834 40.1221 101.998 39.3138 100.403 39.3138C99.2931 39.3138 99.0385 39.4501 99.0193 39.7667C98.9616 40.9694 98.9424 42.5277 98.9424 43.4188ZM100.734 49.8905C102.426 49.8905 103.574 49.0043 103.574 47.5434C103.574 46.0825 102.406 44.9771 99.9946 44.9187C99.6246 44.9187 99.2547 44.9187 98.9424 44.9576V49.3938C98.9424 49.7298 99.4709 49.8857 100.734 49.8857V49.8905Z" fill="#CE0058"/>
<path d="M111.578 45.3132V44.8408C111.578 43.8571 110.973 43.3215 109.849 43.3215C108.955 43.3215 108.076 43.5211 107.201 43.9351V42.3768C108.1 42.0408 108.974 41.8655 110.002 41.8655C112.006 41.8655 113.236 42.6933 113.236 44.7824C113.236 46.3601 113.178 47.782 113.178 49.2575C113.178 50.0464 113.217 50.6989 113.255 51.2102C111.833 51.2102 110.939 51.4683 109.772 51.4683C107.653 51.4683 106.562 50.3629 106.562 48.6878C106.562 46.8714 108.042 45.3959 111.583 45.318L111.578 45.3132ZM111.578 46.6133C109.32 46.6523 108.35 47.2853 108.35 48.566C108.35 49.3939 108.936 50.0464 109.969 50.0464C111.002 50.0464 111.405 49.7883 111.487 49.3744C111.564 48.9994 111.583 47.9525 111.583 46.6133H111.578Z" fill="#CE0058"/>
<path d="M116.508 44.3489V51.2735H114.855V42.3573C116.743 42.3573 116.998 41.8849 118.785 41.8849C120.457 41.8849 121.937 42.7128 121.937 45.0404V51.2735H120.279V45.3375C120.279 43.9156 119.621 43.4042 118.353 43.4042C117.224 43.4042 116.503 43.8571 116.503 44.3489H116.508Z" fill="#CE0058"/>
<path d="M127.783 50.0512C128.35 50.0512 128.778 49.9928 129.244 49.9149V51.3758C128.701 51.4926 128.211 51.5559 127.745 51.5559C125.001 51.5559 123.19 49.9392 123.19 46.7058C123.19 43.7646 124.804 41.8752 127.745 41.8752C128.249 41.8752 128.758 41.9336 129.244 42.0115V43.6088C128.739 43.4529 128.288 43.3945 127.725 43.3945C126.073 43.3945 125.04 44.3441 125.04 46.7253C125.04 49.1065 126.073 50.061 127.783 50.061V50.0512Z" fill="#CE0058"/>
<path d="M138.243 46.6961C138.243 49.5546 136.667 51.5462 134.217 51.5462C131.767 51.5462 130.186 49.5546 130.186 46.6961C130.186 43.8377 131.762 41.8655 134.217 41.8655C136.672 41.8655 138.243 43.8182 138.243 46.6961ZM131.997 46.6961C131.997 48.9215 132.992 50.0464 134.275 50.0464C135.557 50.0464 136.437 48.9994 136.437 46.6961C136.437 44.5048 135.442 43.3604 134.178 43.3604C132.915 43.3604 131.997 44.3879 131.997 46.6961Z" fill="#CE0058"/>
<path d="M143.283 51.293C141.966 51.293 141.039 50.2704 141.039 49.0092C141.039 47.7479 141.966 46.7059 143.283 46.7059C144.599 46.7059 145.541 47.7187 145.541 49.0092C145.541 50.2996 144.599 51.293 143.283 51.293ZM143.268 47.0954C142.168 47.0954 141.462 47.9476 141.462 48.9994C141.462 50.0513 142.173 50.9083 143.268 50.9083C144.364 50.9083 145.07 50.0561 145.07 48.9994C145.07 47.9427 144.364 47.0954 143.268 47.0954ZM142.697 50.4749H142.279V47.4558C142.601 47.4558 142.817 47.4119 143.139 47.4119C143.715 47.4119 144.167 47.7041 144.167 48.2544C144.167 48.6099 143.979 48.868 143.634 49.0287C143.605 49.0481 143.595 49.0725 143.595 49.1017C143.595 49.126 143.605 49.165 143.624 49.1894L144.426 50.47H143.97L143.312 49.4572C143.177 49.2624 143.115 49.2137 142.971 49.2137H142.701V50.47L142.697 50.4749ZM142.985 48.8387C143.475 48.8387 143.706 48.644 143.706 48.2641C143.706 47.9573 143.451 47.7918 143.081 47.7918C142.85 47.7918 142.726 47.8502 142.716 47.9135C142.701 48.2544 142.701 48.5758 142.701 48.8387H142.99H142.985Z" fill="#CE0058"/>
</svg>
