<svg width="56" height="56" viewBox="0 0 56 56" fill="none" xmlns="http://www.w3.org/2000/svg">
<circle cx="28" cy="28" r="20" fill="#FFE9F4"/>
<path d="M32.379 4.87879L11.2847 10.5762C10.8513 10.6932 10.5941 11.1422 10.7103 11.579L20.7576 49.3759C20.8737 49.8127 21.3192 50.072 21.7525 49.9549L42.8468 44.2576C43.2802 44.1405 43.5374 43.6915 43.4213 43.2547L33.3739 5.4578C33.2578 5.02097 32.8123 4.76174 32.379 4.87879Z" fill="#910048"/>
<path d="M28.0458 38.9637C28.331 40.0526 29.4458 40.6972 30.5261 40.401C31.6063 40.1135 32.2458 38.9898 31.952 37.9009C31.6668 36.812 30.552 36.1674 29.4717 36.4636C28.3915 36.7511 27.752 37.8748 28.0458 38.9637Z" fill="#6B8C5B"/>
<path d="M22.1777 16.9075C22.4629 17.9964 23.5777 18.641 24.658 18.3449C25.7382 18.0574 26.3777 16.9337 26.0839 15.8448C25.7987 14.7559 24.6839 14.1113 23.6037 14.4074C22.5234 14.6949 21.8839 15.8186 22.1777 16.9075Z" fill="#6B8C5B"/>
<path d="M30.9753 26.3592C31.0617 26.6728 30.8543 27.0212 30.5519 27.0996L30.2321 27.1867C30.2667 28.1885 29.7309 29.0509 28.8667 29.2861C28.5555 29.3732 28.2099 29.1642 28.1321 28.8593C28.0457 28.5457 28.2531 28.1972 28.5555 28.1188C28.9358 28.0143 29.1346 27.4568 28.979 26.8993C28.8321 26.3418 28.3827 25.9585 28.0025 26.0543C27.6913 26.1414 27.4839 26.5595 27.5271 27.0299L27.5531 27.753C27.6395 28.7199 27.1037 29.6084 26.274 29.8349C25.4703 30.0527 24.6493 29.6171 24.2086 28.8157L23.8888 28.9028C23.5777 28.9899 23.232 28.7809 23.1543 28.476C23.0678 28.1624 23.2753 27.8139 23.5777 27.7355L23.8975 27.6484C23.8802 26.7338 24.3814 25.9411 25.1851 25.7233C25.4963 25.6362 25.8419 25.8452 25.9197 26.1501C26.0061 26.4637 25.7987 26.8122 25.4963 26.8906C25.1851 26.9777 25.0209 27.4655 25.1506 27.9359C25.2716 28.4063 25.6605 28.746 25.9716 28.6589C26.2308 28.5892 26.395 28.2321 26.3605 27.8314L26.3345 27.1083C26.2395 26.0717 26.8098 25.1222 27.6913 24.887C28.5555 24.6518 29.4543 25.1396 29.921 26.0195L30.2407 25.9323C30.5519 25.8452 30.8975 26.0543 30.9753 26.3592Z" fill="#E6E6CF"/>
<path d="M43.6269 9.20654H21.7884C21.3398 9.20654 20.9761 9.57315 20.9761 10.0254V49.1556C20.9761 49.6078 21.3398 49.9744 21.7884 49.9744H43.6269C44.0755 49.9744 44.4392 49.6078 44.4392 49.1556V10.0254C44.4392 9.57315 44.0755 9.20654 43.6269 9.20654Z" fill="#CE0058"/>
<path d="M26.6885 12.064C26.1959 12.9264 24.6663 14.4682 23.8107 14.9648C23.5601 15.1128 23.4045 15.3829 23.4045 15.6704V43.5284C23.4045 43.8159 23.5601 44.0859 23.8107 44.234C24.6663 44.7306 26.1873 46.2724 26.6885 47.1348C26.8354 47.3874 27.1033 47.5442 27.3885 47.5442H38.0355C38.3207 47.5442 38.5886 47.3874 38.7355 47.1348C39.2281 46.2724 40.7577 44.7306 41.6133 44.234C41.8639 44.0859 42.0195 43.8159 42.0195 43.5284V15.6704C42.0195 15.3829 41.8639 15.1128 41.6133 14.9648C40.7577 14.4682 39.2367 12.9264 38.7355 12.064C38.5886 11.8113 38.3207 11.6545 38.0355 11.6545H27.3885C27.1033 11.6545 26.8354 11.8113 26.6885 12.064Z" fill="#FEE0EC"/>
<path d="M33.771 36.0285C37.2975 35.4381 39.6816 32.0778 39.0959 28.523C38.5101 24.9683 35.1765 22.5652 31.6499 23.1556C28.1233 23.746 25.7393 27.1063 26.325 30.661C26.9107 34.2158 30.2444 36.6189 33.771 36.0285Z" fill="#CE0058"/>
<path d="M30.6894 41.0106C30.6894 42.1343 31.5968 43.049 32.7116 43.049C33.8264 43.049 34.7339 42.1343 34.7339 41.0106C34.7339 39.8868 33.8264 38.9722 32.7116 38.9722C31.5968 38.9722 30.6894 39.8868 30.6894 41.0106Z" fill="#CE0058"/>
<path d="M30.6894 18.1793C30.6894 19.303 31.5968 20.2177 32.7116 20.2177C33.8264 20.2177 34.7339 19.303 34.7339 18.1793C34.7339 17.0555 33.8264 16.1409 32.7116 16.1409C31.5968 16.1409 30.6894 17.0555 30.6894 18.1793Z" fill="#CE0058"/>
</svg>
