<svg width="56" height="56" viewBox="0 0 56 56" fill="none" xmlns="http://www.w3.org/2000/svg">
<circle cx="28" cy="28" r="28" fill="#FFE9F4"/>
<g clip-path="url(#clip0_1305_671)">
<path d="M44.6612 4H44.5906H44.1352H11.9888C11.4427 4 11 4.4446 11 4.99304V6.88571C11 7.43415 11.4427 7.87875 11.9888 7.87875H12.1437V8.28927C12.1437 8.7545 12.2459 9.19678 12.4292 9.59455L12.4301 9.59641L12.4409 9.61959V9.62028C12.4527 9.64462 12.4645 9.66873 12.4765 9.69261L12.4786 9.69678C12.4947 9.72877 12.5116 9.76052 12.5286 9.79205L12.5293 9.79344C12.542 9.81662 12.555 9.83957 12.5683 9.86229L12.5704 9.86599C12.5882 9.89659 12.6067 9.92673 12.6256 9.95663L12.6281 9.9608C12.6471 9.99094 12.6667 10.0206 12.6868 10.05L12.6886 10.0526C12.7034 10.0742 12.7184 10.0957 12.7336 10.1168L12.7355 10.1194L12.7507 10.1404L12.7516 10.1416C12.7673 10.1629 12.7832 10.184 12.7994 10.2051L12.8017 10.2081C12.8234 10.2362 12.8458 10.264 12.8684 10.2914L12.8707 10.2941C12.8876 10.3143 12.9046 10.3342 12.9219 10.3539L12.9233 10.3556L12.9402 10.3748L12.9427 10.3776C12.9598 10.3966 12.9769 10.4154 12.9944 10.4339L12.9983 10.4381L13.0154 10.4562L13.0161 10.4569C13.0339 10.4756 13.0521 10.4939 13.0704 10.5123L13.0761 10.5181C13.0934 10.5352 13.111 10.5521 13.1288 10.5691L13.1334 10.5735L13.1502 10.5892L13.1555 10.5943C13.1731 10.6105 13.1908 10.6265 13.2088 10.6425L13.2155 10.6483L13.2326 10.6632L13.2375 10.6673C13.249 10.6773 13.2608 10.6873 13.2725 10.697L13.2762 10.7003L13.2926 10.7139L13.3005 10.7204L13.3169 10.7339L13.3236 10.7392L13.3538 10.7631L13.363 10.7703L13.3787 10.7823L13.388 10.7895L13.4041 10.8018L13.4094 10.8057C13.4207 10.8141 13.4318 10.8224 13.4433 10.8305L13.4512 10.8361L13.4683 10.8484L13.4777 10.8551C13.4904 10.8641 13.5031 10.8729 13.5158 10.8815H13.5161L13.5336 10.8936L13.5431 10.8998L13.5594 10.9107L13.571 10.9181L13.598 10.9355L13.6098 10.9429L13.6261 10.9531L13.6372 10.9601L13.6538 10.9703L13.6647 10.9768L13.6924 10.9933L13.7065 11.0016L13.7203 11.0097L13.7362 11.0187L13.7494 11.0262L13.775 11.0405L13.7889 11.0482L13.8041 11.0563L13.8184 11.064L13.8364 11.0735L13.8521 11.0816L13.8747 11.0932L13.8877 11.0996L13.905 11.1082L13.9181 11.1147L13.9394 11.1249L13.9581 11.1337L13.9756 11.1418L13.9901 11.1486L14.0072 11.1562L14.0201 11.162L14.0483 11.1743L14.0608 11.1796L14.0799 11.1875L14.0931 11.1928L14.1129 11.2009L14.1245 11.2056L14.154 11.2172L14.1649 11.2213L14.1856 11.2292L14.1981 11.2339L14.2263 11.2441L14.2334 11.2466L14.2602 11.2559L14.2722 11.2601L14.2941 11.2675L14.3047 11.271L14.3359 11.2809L14.3449 11.2837L14.3694 11.2911L14.38 11.2944L14.4037 11.3013L14.4141 11.3043L14.4453 11.3131L14.4552 11.3159L14.4797 11.3224L14.4901 11.3252L14.5205 11.3328L14.5238 11.3338L14.5563 11.3417L14.5681 11.3444L14.5923 11.35L14.6015 11.3521C14.6129 11.3546 14.6242 11.3569 14.6355 11.3593L14.6403 11.3602L14.6692 11.366L14.6805 11.3681L14.707 11.3729L14.7151 11.3743C14.7264 11.3764 14.7377 11.3783 14.749 11.3804L14.7571 11.3818L14.7837 11.3859L14.7947 11.3875L14.8227 11.3917L14.8294 11.3926C14.8407 11.3943 14.852 11.3957 14.8635 11.3973L14.8734 11.3984L14.9004 11.4017L14.9094 11.4028C14.9212 11.4042 14.933 11.4054 14.945 11.4068H14.9473L14.9798 11.4103L14.9905 11.4112L15.0177 11.4135L15.0265 11.4142C15.0382 11.4151 15.05 11.4158 15.0618 11.4168L15.0682 11.4172L15.0976 11.4188L15.1079 11.4193L15.1384 11.4207H15.1439C15.1557 11.4214 15.1677 11.4219 15.1795 11.4221H15.189L15.2167 11.4228H15.2266L15.2467 11.423C15.9737 17.9434 20.6838 23.8003 24.9863 26.3469C25.7679 26.8094 25.7679 27.9584 24.9863 28.4209C20.3482 31.1659 15.237 37.7576 15.1511 44.8805H15.1437L15.1382 44.8809L15.1077 44.8823L15.0973 44.8828L15.068 44.8844L15.0615 44.8849C15.0498 44.8856 15.038 44.8865 15.0262 44.8874L15.0175 44.8881L14.9902 44.8904L14.9796 44.8914L14.9471 44.8946H14.9448C14.933 44.896 14.9212 44.8974 14.9092 44.8988L14.9002 44.8999L14.8732 44.9032L14.8633 44.9043C14.852 44.9057 14.8404 44.9074 14.8291 44.909L14.8224 44.9099L14.7945 44.9141L14.7834 44.9157L14.7569 44.9199L14.7488 44.9213C14.7375 44.9231 14.7262 44.9252 14.7149 44.9273L14.7068 44.9287L14.6803 44.9335L14.6689 44.9356L14.6401 44.9414L14.6352 44.9424C14.6239 44.9447 14.6126 44.9472 14.6013 44.9495L14.5921 44.9516L14.5678 44.9572L14.5561 44.96L14.5235 44.9679L14.5203 44.9685L14.4898 44.9762L14.4794 44.979L14.455 44.9855L14.4451 44.9883L14.4139 44.9971L14.4035 45.0001L14.3797 45.007L14.3691 45.0103L14.3447 45.0177L14.3357 45.0205L14.3045 45.0304L14.2939 45.0339L14.272 45.0413L14.2599 45.0455L14.2332 45.0548L14.226 45.0573L14.1979 45.0675L14.1854 45.0722L14.1646 45.08L14.1538 45.0842L14.1242 45.0958L14.1127 45.1004L14.0926 45.1086L14.0806 45.1134L14.0598 45.1222L14.0485 45.1271L14.0204 45.1394L14.0086 45.1447L13.9897 45.1533L13.9761 45.1596L13.9569 45.1684L13.944 45.1744L13.9186 45.1864L13.9054 45.1929L13.8881 45.2015L13.8752 45.208L13.8526 45.2194L13.8369 45.2275L13.8186 45.237L13.8055 45.2439L13.7877 45.2534L13.7762 45.2597L13.7499 45.2743L13.7367 45.2817L13.7208 45.2908L13.7069 45.2989L13.6919 45.3077L13.6695 45.3211L13.6543 45.3304L13.6377 45.3406L13.6266 45.3475L13.6102 45.3577L13.5984 45.3652L13.5714 45.3825L13.5599 45.3902L13.5444 45.4006L13.5331 45.4083L13.5165 45.4194H13.5163C13.5036 45.4284 13.4909 45.4373 13.4782 45.4461L13.4687 45.4528L13.4517 45.4648L13.4438 45.4704C13.4325 45.4785 13.4212 45.4869 13.4099 45.4952L13.4046 45.4991L13.3884 45.5114L13.3792 45.5186L13.3635 45.5307L13.3533 45.5386L13.3272 45.5592L13.3166 45.5678L13.3019 45.5798L13.2922 45.5879L13.2765 45.6009L13.2728 45.6042C13.2615 45.6137 13.2504 45.6232 13.2391 45.6327L13.2322 45.6387L13.2167 45.6521L13.2082 45.6595C13.1906 45.6751 13.1731 45.6908 13.156 45.7066L13.1507 45.7117L13.1338 45.7275L13.1292 45.7319C13.1114 45.7486 13.0939 45.7657 13.0766 45.7829L13.0706 45.7887L13.0542 45.8051L13.0535 45.8058C13.041 45.8183 13.0288 45.8311 13.0166 45.8438L13.0159 45.8445L12.9988 45.8626L12.9949 45.8668C12.9776 45.8853 12.9603 45.9041 12.9434 45.9231L12.9409 45.9259L12.924 45.9451L12.9224 45.9468C12.9051 45.9665 12.888 45.9864 12.8714 46.0066L12.8691 46.0093C12.852 46.03 12.8349 46.0508 12.8183 46.0722L12.8031 46.0916L12.7996 46.0963C12.7839 46.1164 12.7687 46.1368 12.7535 46.1575L12.7511 46.1607L12.7364 46.1811L12.7345 46.1837C12.7195 46.2045 12.7048 46.2256 12.6902 46.2469L12.6874 46.2511C12.6678 46.2801 12.6487 46.3093 12.6297 46.339L12.6263 46.3445C12.6076 46.374 12.5896 46.4039 12.572 46.434L12.569 46.4393C12.5559 46.4618 12.5432 46.4843 12.5307 46.5073L12.53 46.5086L12.5173 46.5321L12.5166 46.5332C12.5042 46.5564 12.4922 46.5796 12.4804 46.603L12.4776 46.6086C12.4659 46.6317 12.4546 46.6551 12.4435 46.6788L12.4423 46.6813L12.4319 46.7034L12.4308 46.7059C12.2478 47.1039 12.1453 47.5462 12.1453 48.0112V48.4217H11.9904C11.4443 48.4217 11.0016 48.8663 11.0016 49.4148V51.3074C11.0016 51.8559 11.4443 52.3005 11.9904 52.3005H44.6626C45.2087 52.3005 45.6514 51.8559 45.6514 51.3074V49.4148C45.6514 48.8663 45.2087 48.4217 44.6626 48.4217H44.4424V48.0112C44.4424 46.3258 43.0991 44.94 41.4347 44.8805C41.4294 44.4396 41.4052 44.0008 41.3634 43.5648C41.3597 43.5251 41.3556 43.4855 41.3516 43.4458C41.3352 43.2875 41.3166 43.1294 41.2955 42.9718C41.2799 42.8536 41.2628 42.7356 41.2445 42.6181C41.2323 42.5397 41.2196 42.4614 41.2065 42.383C41.1335 41.9528 41.0442 41.5261 40.9394 41.1037C40.9226 41.036 40.9055 40.9683 40.8879 40.9009C40.8773 40.8603 40.8667 40.8195 40.8559 40.7789C40.8455 40.7402 40.8351 40.7018 40.8245 40.6633C40.8205 40.6487 40.8164 40.6338 40.8122 40.6192C40.8016 40.5812 40.791 40.5432 40.7802 40.5054C40.7684 40.4637 40.7564 40.4222 40.7441 40.3805C40.7333 40.3434 40.7225 40.3063 40.7114 40.2694C40.7065 40.2537 40.7019 40.2377 40.6971 40.2219C40.686 40.1855 40.6749 40.1491 40.6638 40.1128C40.6594 40.0984 40.6551 40.084 40.6504 40.0696C40.238 38.743 39.6801 37.4674 39.0179 36.2683L39.0057 36.2461C38.9076 36.069 38.8074 35.8937 38.7049 35.7201C38.6823 35.6818 38.6597 35.6438 38.6369 35.6056C38.6189 35.5752 38.6006 35.5451 38.5824 35.5149C38.5725 35.4985 38.5625 35.482 38.5524 35.4656C38.5189 35.4106 38.4854 35.3559 38.4515 35.3015C38.4317 35.2695 38.4118 35.2375 38.3917 35.2055C38.3435 35.1285 38.2948 35.052 38.2459 34.976C38.2202 34.9364 38.1946 34.8967 38.1688 34.8571C38.1369 34.8082 38.1048 34.7595 38.0725 34.7108C38.0278 34.6434 37.9827 34.5764 37.9373 34.5096C37.9234 34.4895 37.9098 34.4691 37.896 34.4489C37.8214 34.3397 37.7459 34.2315 37.6698 34.1241C37.6095 34.0393 37.5486 33.9547 37.4874 33.871C37.4517 33.8221 37.4159 33.7734 37.3796 33.7247C37.3536 33.6895 37.3272 33.6545 37.3009 33.6195C37.2635 33.5697 37.2259 33.5201 37.1881 33.4707C37.1786 33.4582 37.1689 33.4456 37.1595 33.4334C37.1336 33.3997 37.1077 33.3664 37.0819 33.333C37.03 33.2662 36.9778 33.1999 36.9254 33.1339C36.8993 33.101 36.873 33.068 36.8467 33.0354L36.8234 33.0066C36.7488 32.9141 36.6738 32.8223 36.5981 32.7317L36.584 32.7145C36.5169 32.6341 36.4495 32.5544 36.3816 32.4753C36.3364 32.4227 36.2909 32.3701 36.2454 32.3182C36.2226 32.2922 36.2 32.2662 36.1771 32.2403C36.1314 32.1886 36.0855 32.1369 36.0396 32.0857L36.0285 32.0734C35.9463 31.982 35.8637 31.8916 35.7806 31.8024L35.7734 31.7945C35.7524 31.7718 35.7312 31.7493 35.71 31.7268C35.6465 31.6591 35.5828 31.5922 35.5189 31.5259C35.5004 31.5066 35.4819 31.4876 35.4635 31.4686C35.1399 31.135 34.8105 30.8168 34.4774 30.5154C34.417 30.4607 34.3563 30.4062 34.2953 30.3527C34.2346 30.2989 34.1737 30.2458 34.1125 30.1932C33.8686 29.983 33.623 29.7818 33.3765 29.5901C33.3458 29.5662 33.3149 29.5423 33.2842 29.5187C33.0684 29.3532 32.8521 29.1949 32.6358 29.0444C32.6049 29.0229 32.574 29.0015 32.543 28.9804C32.5063 28.9554 32.4699 28.9304 32.4332 28.9058C32.3875 28.875 32.3415 28.8444 32.2958 28.8142C32.2501 28.7841 32.2042 28.7544 32.1585 28.725C32.1036 28.6898 32.0486 28.655 31.9939 28.6207C31.9575 28.5977 31.9208 28.5752 31.8843 28.5528C31.8111 28.508 31.7382 28.4642 31.6653 28.4213C31.653 28.4141 31.641 28.4067 31.629 28.3993C31.6173 28.3919 31.6055 28.384 31.5939 28.3761L31.5769 28.3643L31.5506 28.3451L31.5309 28.33L31.524 28.3247L31.4956 28.3015L31.4668 28.2762C31.4513 28.2621 31.4363 28.2479 31.4215 28.2331L31.4072 28.2185L31.3811 28.1904L31.3657 28.1728C31.3546 28.1598 31.3438 28.1466 31.3331 28.1334L31.3264 28.1251C31.3172 28.1133 31.3082 28.101 31.2994 28.0889L31.2902 28.0757C31.2586 28.03 31.2304 27.9828 31.206 27.9338L31.1963 27.9141C31.1773 27.8747 31.1607 27.8344 31.1462 27.7934L31.1393 27.7727C31.0183 27.4083 31.0732 26.9937 31.3036 26.6749C31.3165 26.6568 31.3301 26.6392 31.3444 26.6218L31.3657 26.5966L31.3691 26.5924C31.3814 26.5785 31.3938 26.5646 31.4068 26.5511L31.4213 26.5361C31.4917 26.4654 31.5727 26.4019 31.6646 26.3479C35.7691 23.9322 40.1489 18.5375 41.1991 12.4235C41.2115 12.3509 41.2235 12.2784 41.2351 12.2058C41.2413 12.1671 41.2473 12.1284 41.2531 12.0894C41.2591 12.0489 41.2651 12.0085 41.2711 11.968C41.2842 11.8757 41.2969 11.7832 41.3085 11.6907C41.3145 11.6428 41.3205 11.5945 41.326 11.5463L41.3283 11.5271C41.3322 11.4926 41.3362 11.4582 41.3399 11.4237C43.0474 11.4142 44.4417 10.0081 44.4417 8.29113V7.88061H44.6619C45.208 7.88061 45.6507 7.43601 45.6507 6.88756V4.99304C45.65 4.4446 45.2073 4 44.6612 4Z" fill="#CDE8F5"/>
<path d="M44.6612 4H44.5906H44.1352H11.9888C11.4427 4 11 4.4446 11 4.99304V6.81501C11 7.40263 11.4743 7.87898 12.0594 7.87898H12.1437V8.28951C12.1437 8.75473 12.2459 9.19701 12.4292 9.59479L12.4301 9.59664L12.4409 9.61982V9.62052C12.4527 9.64486 12.4645 9.66896 12.4765 9.69284L12.4786 9.69701C12.4947 9.729 12.5116 9.76076 12.5286 9.79228L12.5293 9.79367C12.542 9.81685 12.555 9.8398 12.5683 9.86252L12.5704 9.86623C12.5882 9.89682 12.6067 9.92696 12.6256 9.95686L12.6281 9.96103C12.6471 9.99117 12.6667 10.0208 12.6868 10.0503L12.6886 10.0528C12.7034 10.0744 12.7184 10.0959 12.7336 10.117L12.7355 10.1196L12.7507 10.1407L12.7516 10.1418C12.7673 10.1632 12.7832 10.1843 12.7994 10.2054L12.8017 10.2084C12.8234 10.2364 12.8458 10.2642 12.8684 10.2916L12.8707 10.2944C12.8876 10.3145 12.9046 10.3345 12.9219 10.3542L12.9233 10.3558L12.9402 10.375L12.9427 10.3778C12.9598 10.3968 12.9769 10.4156 12.9944 10.4341L12.9983 10.4383L13.0154 10.4564L13.0161 10.4571C13.0339 10.4759 13.0521 10.4942 13.0704 10.5125L13.0761 10.5183C13.0934 10.5354 13.111 10.5524 13.1288 10.5693L13.1334 10.5737L13.1502 10.5895L13.1555 10.5946C13.1731 10.6108 13.1908 10.6268 13.2088 10.6428L13.2155 10.6486L13.2326 10.6634L13.2375 10.6676C13.249 10.6775 13.2608 10.6875 13.2725 10.6972L13.2762 10.7005L13.2926 10.7142L13.3005 10.7207L13.3169 10.7341L13.3236 10.7394L13.3538 10.7633L13.363 10.7705L13.3787 10.7825L13.388 10.7897L13.4041 10.802L13.4094 10.806C13.4207 10.8143 13.4318 10.8226 13.4433 10.8308L13.4512 10.8363L13.4683 10.8486L13.4777 10.8553C13.4904 10.8644 13.5031 10.8732 13.5158 10.8818H13.5161L13.5336 10.8938L13.5431 10.9001L13.5594 10.911L13.571 10.9184L13.598 10.9358L13.6098 10.9432L13.6261 10.9534L13.6372 10.9603L13.6538 10.9705L13.6647 10.977L13.6924 10.9935L13.7065 11.0018L13.7203 11.0099L13.7362 11.019L13.7494 11.0264L13.775 11.0408L13.7889 11.0484L13.8041 11.0565L13.8184 11.0642L13.8364 11.0737L13.8521 11.0818L13.8747 11.0934L13.8877 11.0999L13.905 11.1085L13.9181 11.1149L13.9394 11.1251L13.9581 11.134L13.9756 11.1421L13.9901 11.1488L14.0072 11.1564L14.0201 11.1622L14.0483 11.1745L14.0608 11.1799L14.0799 11.1877L14.0931 11.1931L14.1129 11.2012L14.1245 11.2058L14.154 11.2174L14.1649 11.2216L14.1856 11.2295L14.1981 11.2341L14.2263 11.2443L14.2334 11.2468L14.2602 11.2561L14.2722 11.2603L14.2941 11.2677L14.3047 11.2712L14.3359 11.2811L14.3449 11.2839L14.3694 11.2913L14.38 11.2946L14.4037 11.3015L14.4141 11.3046L14.4453 11.3134L14.4552 11.3162L14.4797 11.3226L14.4901 11.3254L14.5205 11.3331L14.5238 11.334L14.5563 11.3419L14.5681 11.3447L14.5923 11.3502L14.6015 11.3523C14.6129 11.3549 14.6242 11.3572 14.6355 11.3595L14.6403 11.3604L14.6692 11.3662L14.6805 11.3683L14.707 11.3732L14.7151 11.3746C14.7264 11.3767 14.7377 11.3785 14.749 11.3806L14.7571 11.382L14.7837 11.3862L14.7947 11.3878L14.8227 11.392L14.8294 11.3929C14.8407 11.3945 14.852 11.3959 14.8635 11.3975L14.8734 11.3987L14.9004 11.4019L14.9094 11.4031C14.9212 11.4045 14.933 11.4056 14.945 11.407H14.9473L14.9798 11.4105L14.9905 11.4114L15.0177 11.4137L15.0265 11.4144C15.0382 11.4154 15.05 11.4161 15.0618 11.417L15.0682 11.4174L15.0976 11.4191L15.1079 11.4195L15.1384 11.4209H15.1439C15.1557 11.4216 15.1677 11.4221 15.1795 11.4223H15.189L15.2167 11.423H15.2266L15.2467 11.4232H15.2628H41.3214H41.3389C43.0465 11.4137 44.4408 10.0076 44.4408 8.29067V7.88014H44.661C45.2071 7.88014 45.6498 7.43555 45.6498 6.8871V4.99304C45.65 4.4446 45.2073 4 44.6612 4Z" fill="#BB8F78"/>
<path d="M44.5905 48.421H44.4409V48.0105C44.4409 46.3251 43.0976 44.9393 41.4333 44.8798C41.3961 44.8784 41.3589 44.8777 41.3218 44.8777H15.2629C15.2509 44.8777 15.2387 44.8777 15.2267 44.8779H15.2168L15.1891 44.8786H15.1796L15.1515 44.8798H15.1441L15.1385 44.8802L15.1081 44.8816L15.0977 44.8821L15.0684 44.8837L15.0619 44.8842C15.0501 44.8849 15.0384 44.8858 15.0266 44.8867L15.0178 44.8874L14.9906 44.8897L14.98 44.8907L14.9474 44.8939H14.9451C14.9334 44.8953 14.9216 44.8967 14.9096 44.8981L14.9006 44.8992L14.8736 44.9025L14.8636 44.9036C14.8523 44.905 14.8408 44.9067 14.8295 44.9083L14.8228 44.9092L14.7949 44.9134L14.7838 44.915L14.7572 44.9192L14.7492 44.9206C14.7379 44.9224 14.7265 44.9245 14.7152 44.9266L14.7072 44.928L14.6806 44.9329L14.6693 44.9349L14.6405 44.9407L14.6356 44.9417C14.6243 44.944 14.613 44.9465 14.6017 44.9489L14.5924 44.9509L14.5682 44.9565L14.5564 44.9593L14.5239 44.9672L14.5207 44.9679L14.4902 44.9755L14.4798 44.9783L14.4553 44.9848L14.4454 44.9876L14.4143 44.9964L14.4039 44.9994L14.3801 45.0063L14.3695 45.0096L14.345 45.017L14.336 45.0198L14.3049 45.0297L14.2942 45.0332L14.2723 45.0406L14.2603 45.0448L14.2335 45.0541L14.2264 45.0566L14.1982 45.0668L14.1858 45.0715L14.165 45.0794L14.1541 45.0835L14.1246 45.0951L14.1131 45.0998L14.093 45.1079L14.081 45.1127L14.0602 45.1215L14.0489 45.1264L14.0207 45.1387L14.009 45.144L13.99 45.1526L13.9764 45.1589L13.9573 45.1677L13.9443 45.1737L13.9189 45.1858L13.9058 45.1922L13.8885 45.2008L13.8756 45.2073L13.8529 45.2187L13.8372 45.2268L13.819 45.2363L13.8058 45.2432L13.7881 45.2527L13.7765 45.259L13.7502 45.2736L13.7371 45.281L13.7211 45.2901L13.7073 45.2982L13.6923 45.307L13.6699 45.3204L13.6547 45.3297L13.6381 45.3399L13.627 45.3469L13.6106 45.3571L13.5988 45.3645L13.5718 45.3819L13.5603 45.3895L13.5448 45.3999L13.5335 45.4076L13.5169 45.4187H13.5166C13.504 45.4278 13.4913 45.4366 13.4786 45.4454L13.4691 45.4521L13.452 45.4641L13.4442 45.4697C13.4329 45.4778 13.4216 45.4862 13.4102 45.4945L13.4049 45.4985L13.3888 45.5107L13.3795 45.5179L13.3638 45.53L13.3537 45.5379L13.3276 45.5585L13.317 45.5671L13.3022 45.5791L13.2925 45.5872L13.2768 45.6002L13.2731 45.6035C13.2618 45.613 13.2508 45.6225 13.2394 45.632L13.2325 45.638L13.2171 45.6514L13.2085 45.6589C13.191 45.6744 13.1734 45.6902 13.1564 45.7059L13.151 45.711L13.1342 45.7268L13.1296 45.7312C13.1118 45.7479 13.0943 45.765 13.077 45.7822L13.071 45.788L13.0546 45.8044L13.0539 45.8051C13.0414 45.8176 13.0292 45.8304 13.0169 45.8431L13.0163 45.8438L12.9992 45.8619L12.9952 45.8661C12.9779 45.8846 12.9606 45.9034 12.9438 45.9224L12.9412 45.9252L12.9244 45.9444L12.9228 45.9461C12.9055 45.9658 12.8884 45.9857 12.8718 46.0059L12.8695 46.0087C12.8524 46.0293 12.8353 46.0501 12.8187 46.0715L12.8034 46.0909L12.8 46.0956C12.7843 46.1157 12.7691 46.1361 12.7538 46.1568L12.7515 46.16L12.7367 46.1804L12.7349 46.183C12.7199 46.2038 12.7051 46.2249 12.6906 46.2462L12.6878 46.2504C12.6682 46.2794 12.649 46.3086 12.6301 46.3383L12.6266 46.3438C12.6079 46.3733 12.5899 46.4032 12.5724 46.4333L12.5694 46.4386C12.5562 46.4611 12.5436 46.4836 12.5311 46.5066L12.5304 46.508L12.5177 46.5314L12.517 46.5325C12.5045 46.5557 12.4925 46.5789 12.4808 46.6023L12.478 46.6079C12.4662 46.631 12.4549 46.6545 12.4438 46.6781L12.4427 46.6806L12.4323 46.7027L12.4311 46.7052C12.2481 47.1032 12.1456 47.5455 12.1456 48.0105V48.421H12.0614C11.4763 48.421 11.002 48.8974 11.002 49.485V51.307C11.002 51.8554 11.4447 52.3 11.9908 52.3H44.5923C45.1774 52.3 45.6518 51.8236 45.6518 51.236V49.485C45.6518 48.8974 45.1774 48.421 44.5923 48.421H44.5905Z" fill="#BB8F78"/>
<path d="M33.9685 37.6099C33.5415 37.4813 33.1318 37.3457 32.7344 37.2038C32.6864 37.1867 32.6384 37.1695 32.5906 37.1521C32.5186 37.1259 32.447 37.0995 32.3757 37.0731C31.1365 36.6111 30.0048 36.087 28.8222 35.5184C28.7409 35.4792 28.6592 35.44 28.5773 35.4004C28.4953 35.3607 28.4132 35.3211 28.3308 35.2812C28.2071 35.2214 28.0824 35.1609 27.9569 35.1002C27.5804 34.918 27.1954 34.7319 26.797 34.5422C26.2046 34.2873 25.5047 34.3598 24.9123 34.5749C24.7255 34.6426 24.548 34.7279 24.3763 34.8239C24.0712 34.9938 23.7836 35.1973 23.4942 35.3941C22.236 36.2499 21.018 37.1526 20.0369 38.3313C19.0359 39.5109 18.2428 40.8844 17.7833 42.3672C17.6399 42.8294 17.5021 43.3382 17.4405 43.8475C17.3985 44.1957 17.392 44.5438 17.4442 44.8776H38.3613C38.6906 41.7427 36.603 38.4917 33.9685 37.6097V37.6099Z" fill="#EDD5A1"/>
<path d="M33.9685 37.6099C33.5415 37.4813 33.1318 37.3457 32.7344 37.2038C32.6864 37.1867 32.6384 37.1695 32.5906 37.1521C32.5186 37.1259 32.447 37.0995 32.3757 37.0731C31.1365 36.6111 30.0048 36.087 28.8222 35.5184C28.7409 35.4792 28.6592 35.44 28.5773 35.4004C28.4953 35.3607 28.4132 35.3211 28.3308 35.2812C28.2071 35.2214 28.0824 35.1609 27.9569 35.1002C27.5804 34.918 27.1954 34.7319 26.797 34.5422C26.2046 34.2873 25.5047 34.3598 24.9123 34.5749C24.7255 34.6426 24.548 34.7279 24.3763 34.8239C22.5709 37.1876 21.1586 39.9949 20.6058 43.0107C20.4883 43.6519 19.9335 44.1115 19.2939 44.1115C19.2607 44.1115 19.227 44.1104 19.1933 44.1078L18.0002 44.0179C17.7957 44.0026 17.6067 43.9421 17.441 43.8477C17.399 44.1959 17.3925 44.5441 17.4447 44.8779H38.3617C38.6911 41.743 36.6034 38.4919 33.969 37.6099H33.9685Z" fill="#DDB34A"/>
<path d="M34.8294 21.7187C35.4602 21.0145 36.038 20.2398 36.5298 19.4139C36.4589 19.3601 36.3867 19.3082 36.3135 19.2581C34.0156 17.6842 30.5682 17.8214 27.9264 18.9934C27.7277 19.0815 27.4295 18.9934 27.231 18.9934C26.0656 18.454 24.6937 18.3274 23.3917 18.5785C22.3357 18.782 21.3262 19.2338 20.5098 19.915C21.512 21.4301 23.117 23.008 24.6447 24.1637C25.3102 24.6672 25.9611 25.0905 26.5408 25.3937C26.8764 25.5692 26.8162 26.3346 26.7954 26.6322C26.7631 27.0953 27.0733 27.5029 27.5631 27.577C27.7831 27.6102 28.0529 27.5882 28.1775 27.7731C28.2636 27.9006 28.235 28.0719 28.2761 28.2203C28.31 28.3434 28.3982 28.4477 28.509 28.51C28.5828 28.5515 28.6668 28.5742 28.7515 28.5717C28.8395 28.5689 28.9279 28.5418 29.0147 28.558C29.116 28.5768 29.2222 28.6524 29.3112 28.6004C29.3484 28.5789 29.3713 28.5392 29.3923 28.5017C29.4043 28.4801 29.4165 28.4583 29.4285 28.4368C29.4779 28.3485 29.5271 28.2602 29.5764 28.1718C29.6577 28.0265 29.7394 27.8798 29.7869 27.72C29.8271 27.5854 29.8416 27.4447 29.8564 27.3047C29.8968 26.9164 29.9169 26.53 29.9506 26.1419C29.9543 26.1004 29.9577 26.0511 29.9626 25.998C29.9827 25.7773 30.0265 25.488 30.2082 25.3937C31.0799 24.9405 32.2421 24.1079 33.2812 23.2136C33.8593 22.7161 34.3992 22.1994 34.8299 21.7187H34.8294Z" fill="#EDD5A1"/>
<path d="M34.8294 21.7187C35.4602 21.0145 36.038 20.2398 36.5298 19.4139C36.459 19.3601 36.3867 19.3082 36.3135 19.2581C34.0156 17.6842 30.5682 17.8214 27.9264 18.9934C27.7277 19.0815 27.4295 18.9934 27.231 18.9934C26.0656 18.454 24.6937 18.3274 23.3917 18.5785C24.0705 19.6772 24.8336 20.7018 25.6451 21.6306C26.4795 22.5856 25.8669 24.062 24.6448 24.1637C25.3102 24.6672 25.9611 25.0905 26.5408 25.3937C26.8764 25.5692 26.8162 26.3346 26.7954 26.6322C26.7631 27.0953 27.0733 27.5029 27.5631 27.577C27.7831 27.6102 28.0529 27.5882 28.1775 27.7731C28.2636 27.9006 28.235 28.0719 28.2761 28.2203C28.31 28.3434 28.3982 28.4477 28.509 28.51C28.5828 28.5515 28.6668 28.5742 28.7515 28.5717C28.8395 28.5689 28.9279 28.5418 29.0147 28.558C29.116 28.5768 29.2222 28.6524 29.3113 28.6004C29.3484 28.5789 29.3713 28.5392 29.3923 28.5017C29.4043 28.4801 29.4165 28.4583 29.4285 28.4368C29.4779 28.3485 29.5271 28.2602 29.5765 28.1718C29.6577 28.0265 29.7394 27.8798 29.7869 27.72C29.8271 27.5854 29.8417 27.4447 29.8564 27.3047C29.8968 26.9164 29.9169 26.53 29.9506 26.1419C29.9543 26.1004 29.9577 26.0511 29.9626 25.998C29.9827 25.7773 30.0265 25.488 30.2082 25.3937C31.0799 24.9405 32.2421 24.1079 33.2812 23.2136C33.8593 22.7161 34.3992 22.1994 34.8299 21.7187H34.8294Z" fill="#DDB34A"/>
<path d="M15.1892 44.8786L15.2169 44.8782H15.2268C15.2388 44.8779 15.2508 44.8777 15.263 44.8777H17.4442C17.3923 44.5439 17.3985 44.1958 17.4405 43.8476C16.9468 43.5662 16.6608 42.982 16.7965 42.3838C17.8366 37.8008 20.8237 33.7507 24.067 31.085C24.3073 30.8875 24.6071 30.7804 24.9155 30.7804C24.9487 30.7804 24.982 30.7816 25.0154 30.7841C26.1328 30.8683 26.6602 32.2169 25.8916 33.0356C25.3644 33.5973 24.8564 34.1946 24.3761 34.8235C24.548 34.7278 24.7255 34.6425 24.912 34.5748C25.5047 34.3597 26.2046 34.2871 26.7968 34.5421C27.5049 34.8789 28.1711 35.2053 28.8219 35.5182C30.0046 36.0868 31.1363 36.6109 32.3755 37.0729C32.4468 37.0996 32.5183 37.1258 32.5904 37.152C32.6381 37.1694 32.6859 37.1865 32.7342 37.2037C33.1316 37.3455 33.5415 37.4811 33.9683 37.6098C36.6027 38.4918 38.6902 41.7428 38.361 44.8777H39.1696C39.0833 37.7697 34.0839 31.1912 29.4283 28.4367C29.4163 28.4582 29.404 28.48 29.392 28.5016C29.371 28.5393 29.3482 28.5788 29.311 28.6003C29.2219 28.652 29.1155 28.5767 29.0144 28.5579C28.9279 28.5417 28.8395 28.5688 28.7513 28.5716C28.6666 28.5741 28.5826 28.5514 28.5087 28.5099C28.3979 28.4476 28.31 28.3432 28.2758 28.2202C28.2348 28.0718 28.2634 27.9005 28.1773 27.773C28.0526 27.5878 27.7831 27.61 27.5629 27.5769C27.0731 27.503 26.7629 27.0952 26.7952 26.6321C26.816 26.3347 26.8762 25.569 26.5406 25.3936C25.9608 25.0904 25.3099 24.6671 24.6445 24.1636C24.6004 24.1673 24.5557 24.1692 24.51 24.1692C24.1333 24.1692 23.7698 24.0299 23.4905 23.7758C20.8828 21.4059 18.4854 18.019 17.2979 14.2174C17.028 13.3535 17.6713 12.4745 18.5729 12.4745H19.8128C20.408 12.4745 20.931 12.8704 21.0949 13.4453C21.6142 15.2663 22.4154 16.9988 23.3912 18.5783C24.6932 18.3273 26.0652 18.4538 27.2305 18.9933C27.4292 18.9933 27.7272 19.0813 27.9259 18.9933C30.5678 17.8213 34.0154 17.684 36.3131 19.258C37.7346 16.9093 38.7673 14.2272 39.0752 11.4221H15.2469C15.9739 17.9425 20.6841 23.7994 24.9866 26.346C25.7681 26.8085 25.7681 27.9575 24.9866 28.42C20.3485 31.165 15.2372 37.7567 15.1513 44.8796L15.1795 44.8786H15.189H15.1892Z" fill="#E0F2FA"/>
<path d="M33.9685 37.61C33.5415 37.4814 33.1318 37.3458 32.7344 37.2039C32.6864 37.1868 32.6384 37.1696 32.5906 37.1522C32.5186 37.126 32.447 37.0996 32.3757 37.0732C31.1365 36.6112 30.0048 36.0871 28.8222 35.5185C28.1713 35.2056 27.5052 34.8794 26.797 34.5424C26.2436 34.3041 25.5493 34.3509 24.9374 34.5676C24.9342 35.2359 24.8082 36.2779 25.0706 36.4095C25.9477 36.8161 26.6533 37.1539 27.24 37.6499L27.2642 37.6402C27.2829 37.6631 27.2993 37.6877 27.3134 37.7134C27.8475 38.1858 28.2814 38.8024 28.6564 39.7438C29.1878 41.3444 31.711 40.0106 33.1718 40.2774C34.6326 40.5442 34.7655 43.0783 34.4998 44.6789C34.4881 44.7456 34.4751 44.8119 34.4608 44.8777H38.3613C38.6906 41.7428 36.603 38.4918 33.9685 37.6098V37.61Z" fill="#C39E32"/>
<path d="M27.9264 18.9934C27.7277 19.0815 27.4295 18.9934 27.231 18.9934C28.9286 19.6962 30.5941 20.6839 32.3556 21.2581C32.3757 21.2646 32.3958 21.2711 32.4156 21.2776C32.4957 21.3033 32.5763 21.3281 32.6568 21.352C32.7173 21.3698 32.7778 21.3872 32.8385 21.4041C32.9195 21.4266 33.0005 21.448 33.082 21.4683C33.1226 21.4785 33.1635 21.4885 33.2043 21.498C33.2452 21.5078 33.286 21.517 33.3269 21.5261C33.3677 21.5351 33.4088 21.5439 33.4499 21.5525C33.5558 21.5745 33.6625 21.5947 33.7693 21.6128C33.804 21.6186 33.8388 21.6244 33.8737 21.6297C34.1137 21.667 34.3558 21.6939 34.6007 21.7087C34.6769 21.7134 34.753 21.7168 34.8297 21.7189C35.4605 21.0147 36.0382 20.24 36.53 19.4141C36.4592 19.3603 36.3869 19.3084 36.3138 19.2583C34.0158 17.6844 30.5685 17.8216 27.9266 18.9936L27.9264 18.9934Z" fill="#C39E32"/>
<path d="M44.5911 4H44.5904H44.135V5.32545C44.135 5.91307 43.6607 6.38942 43.0756 6.38942H11V6.81501C11 7.40263 11.4743 7.87898 12.0594 7.87898H42.6813C42.226 9.04472 41.0927 9.87596 39.7754 9.87596H13.7169C13.2585 9.87596 12.8222 9.77536 12.4292 9.59502L12.4301 9.59687L12.4409 9.62005V9.62075C12.4527 9.64509 12.4645 9.6692 12.4765 9.69307L12.4786 9.69724C12.4947 9.72923 12.5116 9.76099 12.5286 9.79251L12.5293 9.7939C12.542 9.81709 12.555 9.84003 12.5683 9.86275L12.5704 9.86646C12.5882 9.89706 12.6067 9.92719 12.6256 9.95709L12.6281 9.96127C12.6471 9.9914 12.6667 10.0211 12.6868 10.0505L12.6886 10.0531C12.7034 10.0746 12.7184 10.0962 12.7336 10.1173L12.7355 10.1198L12.7507 10.1409L12.7516 10.1421C12.7673 10.1634 12.7832 10.1845 12.7994 10.2056L12.8017 10.2086C12.8234 10.2366 12.8458 10.2645 12.8684 10.2918L12.8707 10.2946C12.8876 10.3148 12.9046 10.3347 12.9219 10.3544L12.9233 10.356L12.9402 10.3753L12.9427 10.378C12.9598 10.3971 12.9769 10.4158 12.9944 10.4344L12.9983 10.4385L13.0154 10.4566L13.0161 10.4573C13.0339 10.4761 13.0521 10.4944 13.0704 10.5127L13.0761 10.5185C13.0934 10.5357 13.111 10.5526 13.1288 10.5695L13.1334 10.5739L13.1502 10.5897L13.1555 10.5948C13.1731 10.611 13.1908 10.627 13.2088 10.643L13.2155 10.6488L13.2326 10.6636L13.2375 10.6678C13.249 10.6778 13.2608 10.6877 13.2725 10.6975L13.2762 10.7007L13.2926 10.7144L13.3005 10.7209L13.3169 10.7343L13.3236 10.7397L13.3538 10.7635L13.363 10.7707L13.3787 10.7828L13.388 10.79L13.4041 10.8022L13.4094 10.8062C13.4207 10.8145 13.4318 10.8229 13.4433 10.831L13.4512 10.8366L13.4683 10.8488L13.4777 10.8556C13.4904 10.8646 13.5031 10.8734 13.5158 10.882H13.5161L13.5336 10.894L13.5431 10.9003L13.5594 10.9112L13.571 10.9186L13.598 10.936L13.6098 10.9434L13.6261 10.9536L13.6372 10.9606L13.6538 10.9708L13.6647 10.9773L13.6924 10.9937L13.7065 11.0021L13.7203 11.0102L13.7362 11.0192L13.7494 11.0266L13.775 11.041L13.7889 11.0487L13.8041 11.0568L13.8184 11.0644L13.8364 11.0739L13.8521 11.082L13.8747 11.0936L13.8877 11.1001L13.905 11.1087L13.9181 11.1152L13.9394 11.1254L13.9581 11.1342L13.9756 11.1423L13.9901 11.149L14.0072 11.1567L14.0201 11.1625L14.0483 11.1748L14.0608 11.1801L14.0799 11.188L14.0931 11.1933L14.1129 11.2014L14.1245 11.206L14.154 11.2176L14.1649 11.2218L14.1856 11.2297L14.1981 11.2343L14.2263 11.2445L14.2334 11.2471L14.2602 11.2563L14.2722 11.2605L14.2941 11.2679L14.3047 11.2714L14.3359 11.2814L14.3449 11.2842L14.3694 11.2916L14.38 11.2948L14.4037 11.3018L14.4141 11.3048L14.4453 11.3136L14.4552 11.3164L14.4797 11.3229L14.4901 11.3257L14.5205 11.3333L14.5238 11.3342L14.5563 11.3421L14.5681 11.3449L14.5923 11.3505L14.6015 11.3525C14.6129 11.3551 14.6242 11.3574 14.6355 11.3597L14.6403 11.3607L14.6692 11.3665L14.6805 11.3685L14.707 11.3734L14.7151 11.3748C14.7264 11.3769 14.7377 11.3787 14.749 11.3808L14.7571 11.3822L14.7837 11.3864L14.7947 11.388L14.8227 11.3922L14.8294 11.3931C14.8407 11.3947 14.852 11.3961 14.8635 11.3977L14.8734 11.3989L14.9004 11.4022L14.9094 11.4033C14.9212 11.4047 14.933 11.4059 14.945 11.4073H14.9473L14.9798 11.4107L14.9905 11.4117L15.0177 11.414L15.0265 11.4147C15.0382 11.4156 15.05 11.4163 15.0618 11.4172L15.0682 11.4177L15.0976 11.4193L15.1079 11.4198L15.1384 11.4212H15.1439C15.1557 11.4219 15.1677 11.4223 15.1795 11.4225H15.189L15.2167 11.4232H15.2266L15.2467 11.4235H15.2628H41.3214H41.3389C43.0465 11.414 44.4408 10.0079 44.4408 8.2909V7.88037H44.5904C45.1755 7.88037 45.6498 7.40402 45.6498 6.8164V5.06397C45.65 4.47659 45.1759 4.00023 44.5911 4Z" fill="#AA7D65"/>
<path d="M41.3216 44.8777H15.263C15.251 44.8777 15.2388 44.8777 15.2268 44.8779H15.2169L15.1892 44.8786H15.1797L15.1516 44.8798H15.1442L15.1386 44.8802L15.1082 44.8816L15.0978 44.8821L15.0685 44.8837L15.062 44.8842C15.0502 44.8849 15.0385 44.8858 15.0267 44.8867L15.0179 44.8874L14.9907 44.8897L14.9801 44.8907L14.9475 44.8939H14.9452C14.9335 44.8953 14.9217 44.8967 14.9097 44.8981L14.9007 44.8992L14.8737 44.9025L14.8637 44.9036C14.8524 44.905 14.8409 44.9067 14.8296 44.9083L14.8229 44.9092L14.795 44.9134L14.7839 44.915L14.7573 44.9192L14.7493 44.9206C14.738 44.9224 14.7266 44.9245 14.7153 44.9266L14.7073 44.928L14.6807 44.9329L14.6694 44.9349L14.6406 44.9407L14.6357 44.9417C14.6244 44.944 14.6131 44.9465 14.6018 44.9489L14.5925 44.9509L14.5683 44.9565L14.5565 44.9593L14.524 44.9672L14.5208 44.9679L14.4903 44.9755L14.4799 44.9783L14.4554 44.9848L14.4455 44.9876L14.4144 44.9964L14.404 44.9994L14.3802 45.0063L14.3696 45.0096L14.3451 45.017L14.3361 45.0198L14.305 45.0297L14.2943 45.0332L14.2724 45.0406L14.2604 45.0448L14.2336 45.0541L14.2265 45.0566L14.1983 45.0668L14.1859 45.0715L14.1651 45.0794L14.1542 45.0835L14.1247 45.0951L14.1132 45.0998L14.0931 45.1079L14.0811 45.1127L14.0603 45.1215L14.049 45.1264L14.0208 45.1387L14.0091 45.144L13.9901 45.1526L13.9765 45.1589L13.9574 45.1677L13.9444 45.1737L13.919 45.1858L13.9059 45.1922L13.8886 45.2008L13.8757 45.2073L13.853 45.2187L13.8373 45.2268L13.8191 45.2363L13.8059 45.2432L13.7882 45.2527L13.7766 45.259L13.7503 45.2736L13.7372 45.281L13.7212 45.2901L13.7074 45.2982L13.6924 45.307L13.67 45.3204L13.6548 45.3297L13.6381 45.3399L13.6271 45.3469L13.6107 45.3571L13.5989 45.3645L13.5719 45.3819L13.5604 45.3895L13.5449 45.3999L13.5336 45.4076L13.517 45.4187H13.5167C13.504 45.4278 13.4914 45.4366 13.4787 45.4454L13.4692 45.4521L13.4521 45.4641L13.4443 45.4697C13.433 45.4778 13.4217 45.4862 13.4103 45.4945L13.405 45.4985L13.3889 45.5107L13.3796 45.5179L13.3639 45.53L13.3538 45.5379L13.3277 45.5585L13.3171 45.5671L13.3023 45.5791L13.2926 45.5872L13.2769 45.6002L13.2732 45.6035C13.2619 45.613 13.2509 45.6225 13.2395 45.632L13.2326 45.638L13.2172 45.6514L13.2086 45.6589C13.1911 45.6744 13.1735 45.6902 13.1565 45.7059L13.1511 45.711L13.1343 45.7268L13.1297 45.7312C13.1119 45.7479 13.0944 45.765 13.0771 45.7822L13.0711 45.788L13.0547 45.8044L13.054 45.8051C13.0415 45.8176 13.0293 45.8304 13.017 45.8431L13.0163 45.8438L12.9993 45.8619L12.9953 45.8661C12.978 45.8846 12.9607 45.9034 12.9439 45.9224L12.9413 45.9252L12.9245 45.9444L12.9229 45.9461C12.9056 45.9658 12.8885 45.9857 12.8719 46.0059L12.8696 46.0087C12.8525 46.0293 12.8354 46.0501 12.8188 46.0715L12.8035 46.0909L12.8001 46.0956C12.7844 46.1157 12.7692 46.1361 12.7539 46.1568L12.7516 46.16L12.7368 46.1804L12.735 46.183C12.72 46.2038 12.7052 46.2249 12.6907 46.2462L12.6879 46.2504C12.6683 46.2794 12.6491 46.3086 12.6302 46.3383L12.6267 46.3438C12.608 46.3733 12.59 46.4032 12.5725 46.4333L12.5695 46.4386C12.5563 46.4611 12.5437 46.4836 12.5312 46.5066L12.5305 46.508L12.5178 46.5314L12.5171 46.5325C12.5046 46.5557 12.4926 46.5789 12.4809 46.6023L12.4781 46.6079C12.4663 46.631 12.455 46.6545 12.4439 46.6781L12.4428 46.6806L12.4324 46.7027L12.4312 46.7052C12.8243 46.5249 13.2603 46.4243 13.7189 46.4243H39.7775C41.0948 46.4243 42.228 47.2553 42.6834 48.4213H12.0594C11.4743 48.4213 11 48.8976 11 49.4852V49.9108H43.0758C43.6609 49.9108 44.1352 50.3872 44.1352 50.9748V52.3002H44.5906C45.1757 52.3002 45.65 51.8239 45.65 51.2363V49.4852C45.65 48.8976 45.1757 48.4213 44.5906 48.4213H44.441V48.0107C44.441 46.3253 43.0977 44.9396 41.4334 44.88C41.3962 44.8786 41.359 44.8779 41.3219 44.8779L41.3216 44.8777Z" fill="#AA7D65"/>
<path d="M28.0667 29.2867C28.0757 29.1371 27.9176 28.9012 27.8089 29.0039C27.7556 29.0542 27.8105 29.298 27.8105 29.298C27.895 29.317 27.9843 29.3128 28.0667 29.2867Z" fill="#DDB34A"/>
<path d="M28.989 32.4983C29.0246 32.4916 29.0477 32.4547 29.0407 32.4193C29.0128 32.2765 28.8819 32.1124 28.788 32.2011C28.7347 32.2514 28.7894 32.4953 28.7894 32.4953C28.8547 32.5099 28.9233 32.5108 28.989 32.4983Z" fill="#DDB34A"/>
<path d="M26.9258 35.1638C26.8725 35.2141 26.9272 35.4579 26.9272 35.4579C27.0117 35.4769 27.101 35.4728 27.1834 35.4466C27.1924 35.2971 27.0343 35.0611 26.9256 35.1638H26.9258Z" fill="#DDB34A"/>
<path d="M28.7446 36.5487C28.6883 36.5016 28.454 36.5862 28.454 36.5862C28.4457 36.6727 28.4607 36.7612 28.4967 36.8403C28.6456 36.831 28.8593 36.6444 28.7446 36.5487Z" fill="#DDB34A"/>
<path d="M27.4604 31.3805C27.4712 31.4704 27.5707 31.523 27.6476 31.4755C27.7519 31.4111 27.8288 31.3019 27.7496 31.2358C27.7168 31.2085 27.6233 31.2259 27.5511 31.2451C27.4927 31.2606 27.453 31.3177 27.4602 31.3779V31.3805H27.4604Z" fill="#DDB34A"/>
<path d="M28.602 30.3003C28.6403 30.2898 28.6532 30.2407 28.6474 30.2011C28.6417 30.1617 28.6244 30.1232 28.6292 30.0835C28.6347 30.039 28.6668 30.0036 28.6938 29.9679C28.7525 29.8907 28.836 29.6121 28.6509 29.6121C28.523 29.6121 28.5743 29.8344 28.5424 29.9271C28.5267 29.973 28.4986 30.0142 28.485 30.0611C28.466 30.1262 28.4778 30.1997 28.5163 30.2553C28.536 30.2836 28.5687 30.3093 28.602 30.3003Z" fill="#DDB34A"/>
<path d="M28.7952 34.6143C28.6673 34.6143 28.7185 34.8366 28.6867 34.9293C28.6708 34.9752 28.6428 35.0164 28.6292 35.0633C28.6103 35.1284 28.6221 35.2019 28.6606 35.2575C28.6802 35.2858 28.713 35.3115 28.7462 35.3025C28.7845 35.292 28.7975 35.2429 28.7917 35.2033C28.7859 35.1639 28.7686 35.1254 28.7735 35.0857C28.779 35.0412 28.8111 35.0058 28.8381 34.9701C28.8967 34.8931 28.9803 34.6143 28.7952 34.6143Z" fill="#DDB34A"/>
<path d="M27.9079 33.8306C27.9462 33.8201 27.9592 33.771 27.9534 33.7313C27.9476 33.6919 27.9303 33.6535 27.9352 33.6138C27.9407 33.5693 27.9728 33.5339 27.9998 33.4982C28.0584 33.4212 28.142 33.1423 27.9569 33.1423C27.829 33.1423 27.8802 33.3646 27.8486 33.4574C27.8329 33.5033 27.8048 33.5445 27.7911 33.5913C27.7722 33.6565 27.784 33.73 27.8225 33.7856C27.8421 33.8139 27.8749 33.8396 27.9082 33.8306H27.9079Z" fill="#DDB34A"/>
<path d="M20.5096 19.915C21.3259 19.2337 22.3355 18.782 23.3915 18.5784C22.4156 16.9989 21.6145 15.2664 21.0951 13.4454C20.9313 12.8705 20.4082 12.4746 19.813 12.4746H18.5731C17.6715 12.4746 17.0283 13.3536 17.2981 14.2175C18.4854 18.0191 20.883 21.4062 23.4907 23.7759C23.77 24.0297 24.1335 24.1693 24.5102 24.1693C24.5559 24.1693 24.6007 24.1674 24.6447 24.1637C23.117 23.0079 21.512 21.4301 20.5098 19.915H20.5096Z" fill="#EEF8FC"/>
<path d="M17.7833 42.3672C18.2428 40.8841 19.0359 39.5109 20.0369 38.3313C21.018 37.1523 22.2358 36.2499 23.4942 35.3941C23.7836 35.1973 24.071 34.994 24.3763 34.8239C24.8566 34.195 25.3646 33.5976 25.8918 33.036C26.6604 32.2172 26.133 30.8686 25.0157 30.7845C24.9824 30.7819 24.949 30.7808 24.9157 30.7808C24.6074 30.7808 24.3075 30.8879 24.0673 31.0854C20.8239 33.7511 17.8368 37.8011 16.7968 42.3841C16.6611 42.9824 16.947 43.5663 17.4407 43.8479C17.5024 43.3387 17.6402 42.8299 17.7835 42.3676L17.7833 42.3672Z" fill="#EEF8FC"/>
</g>
<defs>
<clipPath id="clip0_1305_671">
<rect width="34.65" height="48.3" fill="white" transform="translate(11 4)"/>
</clipPath>
</defs>
</svg>
